<svg xmlns="http://www.w3.org/2000/svg" viewBox="0 0 376.52 330.72"><defs><style>.cls-1{fill:#a2b6de;stroke:#746ab0;}.cls-1,.cls-10,.cls-7{stroke-miterlimit:10;}.cls-2{fill:#e88b77;}.cls-3{fill:#392f36;}.cls-4{fill:#e88a76;}.cls-5{fill:#1a1d3e;}.cls-6{fill:#3d4281;}.cls-10,.cls-7{fill:none;}.cls-7{stroke:#c9c9e2;stroke-width:1.36px;}.cls-8{fill:#381b1a;}.cls-9{fill:#909c90;}.cls-10{stroke:#e4e5f3;stroke-width:1.1px;}.cls-11{fill:#391d1d;}.cls-12{fill:#98b6ce;}.cls-13{fill:#f7eae3;}.cls-14{fill:#c9c4c0;}.cls-15{fill:#839cd0;}.cls-16{fill:#f58d78;}.cls-17{fill:#1c1e3b;}.cls-18{fill:#2c1716;}.cls-19{fill:#4d2e2d;}</style></defs><title>Asset 2</title><g id="Layer_2" data-name="Layer 2"><g id="Layer_1-2" data-name="Layer 1"><path class="cls-1" d="M91.53,23.81a75.91,75.91,0,0,0-57,42.26c-9.78,21-9.3,45-11.13,68a322.18,322.18,0,0,1-9.68,57c-3.92,14.85-8.9,29.45-11.5,44.59S-.48,266.76,5.2,281a60.08,60.08,0,0,0,40.12,35.36c13.38,3.46,27.46,2.13,41.28,1.65C143.76,316.06,203,328.83,257,310c5.32-1.86,10.79-4.21,14.2-8.7,3.11-4.11,4-9.45,4.49-14.6,2.35-27.45-6.67-54.88-20.3-78.84-6.17-10.85-13.68-21.52-24.56-27.64-9.74-5.49-22-7.25-29.3-15.72-8.21-9.53-7-23.61-6.66-36.18a170.43,170.43,0,0,0-16.59-77.5c-3.21-6.7-7-13.37-12.75-18.08-6.19-5.08-14.15-7.46-22-8.9a114.44,114.44,0,0,0-44.86.82A14.36,14.36,0,0,0,91.53,23.81Z"/><path class="cls-2" d="M129.24,27.16c.91,5.83.5,15.51-.16,21.37a22.28,22.28,0,0,1-1.16,5.72,18.16,18.16,0,0,1-2.48,4.17,11.86,11.86,0,0,1-3.71,3.52,4.76,4.76,0,0,1-4.9-.08,19.52,19.52,0,0,0-1.36,6.8c-3.07-.24-6.18-.23-9.23-.67a29.17,29.17,0,0,1-8-2.85c-.13-.06-.28-.17-.24-.3s.29,0,.15.08a87,87,0,0,0,1.33-14.49c0-2.48-3.62-5.2-4-7.65-.28-1.72-.29-4.08-.48-5.81-.42-3.95,4.38-7.42,6.84-10.54a21.48,21.48,0,0,1,9.67-6.71c4.21-1.52,9.08-1.89,13,.19S130.94,23,129.24,27.16Z"/><path class="cls-3" d="M108,27.17a16.35,16.35,0,0,1-2.93,5.68,28.87,28.87,0,0,0-1.89,2.4,4.26,4.26,0,0,0-.73,2.9,7.74,7.74,0,0,0-3-1.11,3.44,3.44,0,0,0-2.85,1.15,4.13,4.13,0,0,0-.68,2.88,7.8,7.8,0,0,0,5.44,7.08c-2,2.61-2.25,5.9-2.3,9.19-2.26-.08-4.59-3.23-5.1-5.42Q91.91,43,89.84,34.14A25.45,25.45,0,0,1,88.92,28a8.67,8.67,0,0,1,2-5.76,10.24,10.24,0,0,1,5.17-2.66c.88-3.95,4.9-6.63,8.76-7.82,4.24-1.3,9-1.82,13,0,2,.93,3.82,2.42,5.93,3.22,2.83,1.07,6.22.89,8.55,2.84a5.74,5.74,0,0,1-1.77,9.81c-2.06.73-4.32.23-6.47-.18a79.69,79.69,0,0,0-12-1.36C110.78,26,108.38,25.88,108,27.17Z"/><path class="cls-4" d="M214.94,300.59s0,6.5.76,9.52-8.31,7.85-8.31,7.85l-8-6.34a67.69,67.69,0,0,0,.6-11C199.69,296.06,214.94,300.59,214.94,300.59Z"/><path class="cls-5" d="M200.67,329.52a23.65,23.65,0,0,0,7.78.27,9.05,9.05,0,0,1,2.89-.06,3.38,3.38,0,0,1,3.16-2.16,5.1,5.1,0,0,1,3.63,1.62,5.25,5.25,0,0,0,1.59,1.35,3.88,3.88,0,0,0,1.52.17l18.1-.39c1.22,0,2.62-.13,3.36-1.1a4.07,4.07,0,0,0,.54-2.51A7.66,7.66,0,0,0,242,322c-1.3-1.63-3.65-1.65-5.65-2.23s-3.82-1.51-5.94-2.17a17.26,17.26,0,0,1-10.66-9.7,4.28,4.28,0,0,0-1.23-2c-.93-.65-2.21-.35-3.28,0a29.24,29.24,0,0,0-3.79,1.7c-.85.45-1.79,1.16-1.69,2.11.14,1.23,2,2.13,1.45,3.24-.32.64-1.21.68-1.92.6A34.07,34.07,0,0,1,199,310.79a27.6,27.6,0,0,0-.42,4.79l.48,10.28A7,7,0,0,0,200.67,329.52Z"/><path class="cls-6" d="M218.57,301.2c-1.82,1.75-4.45,2.34-6.95,2.66a48.77,48.77,0,0,1-19.71-1.44c-4.51-8.38-2.57-18.57-2.49-28.09a134.73,134.73,0,0,0-1.18-16.42c-1-8.29-2.11-16.25-3.17-24.42a6.27,6.27,0,0,0-5.53-5.44l-43.34-4.74c-7.34-.8-14.79-1.63-21.6-4.48s-13-8.06-15.26-15.09c-2.4-7.47-.08-15.74-1.93-23.37,11-2,20.45-4.17,31.47-5.8,6.26-.93,12.71-1.78,18.84-.26,4.73,1.17,9,3.69,13.18,6.18,14.62,8.69,29.26,17.38,43.29,27,2.07,1.41,4.22,3,5.26,5.23s.83,4.59,1,6.94c.4,6.47,4.54,28.86,4.45,33.8a163.48,163.48,0,0,0,3,33.84C218.65,291.39,219.21,297.07,218.57,301.2Z"/><path class="cls-4" d="M262.06,293.37s0,6.5.76,9.52-8.31,7.85-8.31,7.85l-8-6.34a67.69,67.69,0,0,0,.6-11C246.81,288.84,262.06,293.37,262.06,293.37Z"/><path class="cls-5" d="M247.79,322.3a23.65,23.65,0,0,0,7.78.27,8.77,8.77,0,0,1,2.89-.05,3.37,3.37,0,0,1,3.16-2.17,5.14,5.14,0,0,1,3.63,1.62,5.11,5.11,0,0,0,1.59,1.35,3.88,3.88,0,0,0,1.52.18l18.1-.39c1.22,0,2.62-.14,3.36-1.11a4,4,0,0,0,.53-2.5,7.6,7.6,0,0,0-1.19-4.7c-1.3-1.63-3.65-1.65-5.65-2.23s-3.82-1.51-5.94-2.16a17.27,17.27,0,0,1-10.66-9.71,4.2,4.2,0,0,0-1.23-2c-.93-.66-2.21-.36-3.28,0a31.47,31.47,0,0,0-3.8,1.7c-.84.45-1.78,1.16-1.68,2.11.14,1.23,2,2.13,1.45,3.24-.32.64-1.21.68-1.92.6a33.93,33.93,0,0,1-10.39-2.84,28.72,28.72,0,0,0-.41,4.8l.48,10.27A7,7,0,0,0,247.79,322.3Z"/><path class="cls-6" d="M265.69,294c-1.82,1.75-4.45,2.34-6.95,2.66A48.58,48.58,0,0,1,239,295.21c-4.51-8.39-2.57-18.58-2.49-28.1a134.73,134.73,0,0,0-1.18-16.42c-1-8.29-2.11-16.25-3.17-24.42a6.28,6.28,0,0,0-5.53-5.44l-43.34-4.73c-7.34-.81-14.79-1.64-21.6-4.49s-13-8.06-15.26-15.09c-2.4-7.47-.08-15.74-1.93-23.37,11-2,20.45-4.17,31.47-5.8,6.26-.92,12.7-1.78,18.84-.26,4.73,1.17-9,4.38-4.83,6.87,14.62,8.69,46.37,14.42,61.3,26.29,9.49,7.55,10.77,41,10.69,46a163.42,163.42,0,0,0,3,33.84C265.77,284.17,266.33,289.85,265.69,294Z"/><path class="cls-7" d="M216.65,40.11l-11.8,63.31a8.85,8.85,0,0,0,8.5,10.46l107.37,2.37a8.84,8.84,0,0,0,8.84-7l14.32-66a8.83,8.83,0,0,0-8.66-10.71l-109.91.34A8.83,8.83,0,0,0,216.65,40.11Z"/><path class="cls-8" d="M209.13,34.57l-11.8,63.31a8.85,8.85,0,0,0,8.5,10.46l107.37,2.37a8.84,8.84,0,0,0,8.84-7l14.32-66A8.83,8.83,0,0,0,327.7,27l-109.91.34A8.83,8.83,0,0,0,209.13,34.57Z"/><path class="cls-9" d="M224.78,38.15c1.25-.15,2.51-.25,3.77-.28s2.51,0,3.77-.07c.54,0,.73-.86.13-1a14.87,14.87,0,0,0-3.83-.28,37.92,37.92,0,0,0-3.84.28.71.71,0,0,0-.68.68c0,.33.31.73.68.68Z"/><path class="cls-9" d="M237.39,37.44q4.14-.34,8.3-.34c1.35,0,2.7,0,4,.06a40.57,40.57,0,0,0,4.27.09c.41,0,.55-.65.1-.75a20.61,20.61,0,0,0-4-.37c-1.43-.06-2.86-.09-4.28-.06-2.82,0-5.63.21-8.43.49-.55.06-.56.92,0,.88Z"/><path class="cls-9" d="M262.31,37c2.88-.06,5.76,0,8.64,0,1.4,0,2.8.07,4.2.14a22.87,22.87,0,0,0,4.3,0c.42,0,.37-.7,0-.8a18.29,18.29,0,0,0-4.18-.4c-1.44,0-2.88-.07-4.32-.07-2.88,0-5.76.07-8.64.22a.46.46,0,0,0,0,.91Z"/><path class="cls-9" d="M285.27,36.3l11.72.13c1.92,0,3.83.06,5.74.07h3a5.53,5.53,0,0,0,2.78-.32.58.58,0,0,0,0-1,5.44,5.44,0,0,0-2.78-.32h-2.87c-2,0-3.91,0-5.87.07l-11.72.13a.62.62,0,0,0,0,1.24Z"/><path class="cls-9" d="M217.2,50.93q5.81.16,11.61.06c1.9,0,3.79-.12,5.68-.22a26,26,0,0,0,5.78-.63.4.4,0,0,0-.1-.79,33.69,33.69,0,0,0-5.68.08c-1.93.09-3.87.15-5.8.21-3.83.11-7.66.11-11.49,0a.63.63,0,0,0,0,1.26Z"/><path class="cls-9" d="M245.69,50a.08.08,0,0,0,0-.15.08.08,0,0,0,0,.15Z"/><path class="cls-9" d="M245.3,50.62h2.13a9.21,9.21,0,0,0,1,0,1.59,1.59,0,0,0,1.11-.45.36.36,0,0,0,0-.4,1.55,1.55,0,0,0-1.11-.45c-.35,0-.7,0-1,0H245.3a.69.69,0,1,0,0,1.38Z"/><path class="cls-9" d="M252.83,50c10.46.23,20.92.18,31.38.1l8.1-.07a.65.65,0,0,0,0-1.3q-15.21.2-30.43.05c-3,0-6-.07-9-.14a.68.68,0,0,0,0,1.36Z"/><path class="cls-9" d="M219.56,61.45c1.55,0,3.09,0,4.65-.12a25.61,25.61,0,0,0,4.63-.48c.76-.18.51-1.18-.16-1.25a24.91,24.91,0,0,0-4.65.12c-1.56.1-3.1.25-4.64.46-.74.1-.54,1.27.17,1.27Z"/><path class="cls-9" d="M217.57,69.13a29.23,29.23,0,0,1,3.37-.26c1.13,0,2.25,0,3.38-.16a.54.54,0,0,0,.14-1.06,16.78,16.78,0,0,0-7.09,0c-.83.13-.65,1.6.2,1.49Z"/><path class="cls-9" d="M229.47,69.31h1.64c.27,0,.54-.06.81-.09a4,4,0,0,0,.5-.09,1.75,1.75,0,0,0,.43-.22.44.44,0,0,0,0-.74,1.75,1.75,0,0,0-.43-.22,3.55,3.55,0,0,0-.47-.09,8,8,0,0,0-.84-.09h-1.64a.78.78,0,0,0,0,1.56Z"/><path class="cls-9" d="M237.61,69.36a26.51,26.51,0,0,1,7.28-.29.53.53,0,0,0,.27-1,12.1,12.1,0,0,0-8-.42c-1.1.25-.63,1.94.46,1.68Z"/><path class="cls-9" d="M252.42,68.26c3.65.14,7.29.28,10.94.36l5.46.12,2.61.06a4.88,4.88,0,0,0,2.6-.27.48.48,0,0,0,0-.81,4.84,4.84,0,0,0-2.48-.39l-2.73-.07-5.46-.14c-3.65-.09-7.29-.14-10.94-.18a.66.66,0,0,0,0,1.32Z"/><path class="cls-9" d="M279.34,68l4.52-.12,2.21-.06a4,4,0,0,0,2.21-.52.48.48,0,0,0,0-.82,3.77,3.77,0,0,0-2.12-.41l-2.3.06-4.52.13c-1.12,0-1.13,1.78,0,1.74Z"/><path class="cls-9" d="M291.6,68.09l4,.09,2,0a5,5,0,0,0,2.07-.24.72.72,0,0,0,0-1.24,5.15,5.15,0,0,0-2.07-.24l-2,0-4,.1a.75.75,0,0,0,0,1.49Z"/><path class="cls-9" d="M213.24,78.11a23.07,23.07,0,0,1,6.09.41.92.92,0,0,0,.49-1.78,25,25,0,0,0-6.58-.38.9.9,0,0,0-.87.88.88.88,0,0,0,.87.87Z"/><path class="cls-9" d="M216,87.13c3.69,0,7.37.1,11.06.1h8.2a3.31,3.31,0,0,0,2.37-.52.37.37,0,0,0,0-.53,3.14,3.14,0,0,0-2.25-.52h-8.32c-3.69,0-7.37,0-11.06.08a.71.71,0,0,0,0,1.41Z"/><path class="cls-9" d="M241.56,86.76c.41-.1.82-.19,1.24-.26l.27,0h.13l.63-.07c.39,0,.79,0,1.17-.06l.64,0a1.71,1.71,0,0,0,.72-.24.54.54,0,0,0,0-.93,1.27,1.27,0,0,0-.62-.29l-.74-.11a6.65,6.65,0,0,0-1.26,0,15.56,15.56,0,0,0-2.62.43.84.84,0,1,0,.44,1.62Z"/><path class="cls-9" d="M242.53,86.67h2.92a9.45,9.45,0,0,0,1.41-.07c.43,0,1.24-.06,1.24-.67s-.81-.62-1.24-.67a13.18,13.18,0,0,0-1.41-.07l-2.92,0a.73.73,0,0,0-.73.72.74.74,0,0,0,.73.73Z"/><path class="cls-9" d="M254,86.37c7.8.23,15.61.1,23.41.13s15.44.12,23.15.31q3.24.07,6.47.18l3.24.1a33.73,33.73,0,0,0,3.48.06c.74-.05,1-1.26.19-1.38a55.43,55.43,0,0,0-5.91-.3l-5.72-.18c-3.9-.12-7.8-.21-11.7-.29-7.8-.16-15.61-.28-23.41-.2-4.4,0-8.8.09-13.2.35a.61.61,0,0,0,0,1.22Z"/><path class="cls-9" d="M208.09,99.07q14.76,0,29.52-.43l4.1-.12a18,18,0,0,0,4.15-.34c.54-.15.59-1,0-1.15a7.09,7.09,0,0,0-1.66-.17l-2,.07-3.61.1-7.34.17q-7.41.15-14.82.2-4.17,0-8.35,0a.82.82,0,0,0,0,1.64Z"/><path class="cls-9" d="M250.44,98.22l3.63,0a15.75,15.75,0,0,0,1.82,0,5.09,5.09,0,0,0,1.78-.31.49.49,0,0,0,0-.84,5.09,5.09,0,0,0-1.78-.31c-.6-.07-1.21,0-1.82,0l-3.63,0a.8.8,0,0,0,0,1.6Z"/><path class="cls-9" d="M261.93,98.61a202.78,202.78,0,0,0,25,0l3.58-.23,1.73-.14a14.59,14.59,0,0,1,1.85-.16l-.56-.24.12.1a1,1,0,1,0,0-1.37,4.76,4.76,0,0,0-.55,0l-.74.06-1.6.14q-1.54.12-3.09.21c-2.06.14-4.13.24-6.19.31-4.17.16-8.34.18-12.51.11-2.35,0-4.71-.07-7.06-.16-.87,0-.85,1.29,0,1.34Z"/><path class="cls-7" d="M300.09,3.14l70.82,1.32a5,5,0,0,1,4.87,5.74l-1.23,8.32a5,5,0,0,1-5,4.29l-71-.53a5,5,0,0,1-4.91-5.79L295,7.38A5,5,0,0,1,300.09,3.14Z"/><path class="cls-10" d="M217.09,6.78l-.39,2.35a6.44,6.44,0,0,0,6.23,7.5l51.83,1a6.45,6.45,0,0,0,6.54-5.78L281.59,9a6.44,6.44,0,0,0-6.35-7.1l-51.73-.48A6.45,6.45,0,0,0,217.09,6.78Z"/><path class="cls-11" d="M297.14,0,368,1.31a5,5,0,0,1,4.86,5.75l-1.22,8.32a5,5,0,0,1-5,4.28l-71-.52a5,5,0,0,1-4.92-5.79l1.42-9.11A5,5,0,0,1,297.14,0Z"/><path class="cls-12" d="M302,6.5l3.57.26c.58,0,1.17.11,1.75.12A3.36,3.36,0,0,0,309,6.74a.24.24,0,0,0,0-.4,3.46,3.46,0,0,0-1.6-.34c-.6-.07-1.21-.09-1.82-.13L302,5.66c-.54,0-.53.8,0,.84Z"/><path class="cls-12" d="M311.36,7a10.27,10.27,0,0,0,1.46.12,3.92,3.92,0,0,0,.76-.08,1.25,1.25,0,0,0,.41-.11l.28-.16a.35.35,0,0,0-.08-.64l-.32-.07a1.53,1.53,0,0,0-.37,0c-.23,0-.46,0-.68,0a11.81,11.81,0,0,1-1.33,0,.46.46,0,0,0-.46.4.47.47,0,0,0,.33.51Z"/><path class="cls-12" d="M317.23,6.91c2.89,0,5.77,0,8.66,0,1.43,0,2.86,0,4.29,0l2.2.1a6.52,6.52,0,0,0,2.16,0,.29.29,0,0,0,.07-.52,10.68,10.68,0,0,0-4.06-.5c-1.52-.06-3-.09-4.54-.09-2.93,0-5.85.06-8.78.22a.41.41,0,0,0,0,.81Z"/><path class="cls-12" d="M338,6.86a23.32,23.32,0,0,0,4.26.07.32.32,0,0,0,.3-.26.29.29,0,0,0-.22-.33A22.52,22.52,0,0,0,338,6c-.58,0-.57.86,0,.9Z"/><path class="cls-12" d="M345.8,7c2.67-.11,5.36-.11,8,0,1.3,0,2.6.12,3.89.23.69.05,1.38.12,2.06.19a3.12,3.12,0,0,0,1.74-.11.32.32,0,0,0,.06-.5A2.71,2.71,0,0,0,360,6.28c-.65-.08-1.3-.13-1.94-.18Q356,6,354,5.89a69.29,69.29,0,0,0-8.15.26c-.52,0-.54.84,0,.82Z"/><path class="cls-12" d="M301.75,13.43a9.31,9.31,0,0,1,3-.19l3,.08,6.18.17,6.19.17,3,.08,1.48,0a2.33,2.33,0,0,0,1.43-.23.38.38,0,0,0,0-.65,2.42,2.42,0,0,0-1.43-.29l-1.48,0-3.1-.07-6.3-.15-6.19-.15c-1.94-.05-4.07-.32-5.95.3a.47.47,0,0,0,.25.91Z"/><path class="cls-12" d="M328.91,13.6c.74,0,1.47,0,2.21,0a11,11,0,0,0,1.14-.11,1.4,1.4,0,0,0,1-.47.33.33,0,0,0,0-.4,1.55,1.55,0,0,0-1.12-.23l-1,.07c-.72,0-1.44.09-2.17.09a.53.53,0,0,0,0,1Z"/><path class="cls-12" d="M337.25,13.3c4.37.22,8.74.34,13.11.43l6.5.13c1.08,0,2.16.05,3.24.05.81,0,2.16.27,2.7-.47a.37.37,0,0,0,0-.38c-.51-.73-1.79-.5-2.57-.51-1.09,0-2.17,0-3.25,0-2.21,0-4.41,0-6.62,0-4.37,0-8.74-.1-13.11-.1a.44.44,0,0,0,0,.87Z"/><path class="cls-12" d="M225.84,10.35a11.53,11.53,0,0,1,2.95-2.62A1.32,1.32,0,0,1,230.6,8c.54.5,1.05,1,1.58,1.54L233.66,11a5.51,5.51,0,0,0,1.42,1.17,1.9,1.9,0,0,0,2.14-.45c.53-.49,1-1.46,1.74-1.63s1.52.71,2.07,1.08a2.06,2.06,0,0,0,2.41.1c.42-.29.71-.77,1.27-.79a4.39,4.39,0,0,1,1.76.6c2.81,1.21,5.61.05,8.12-1.31.45-.23.14-1-.35-.83a24.19,24.19,0,0,1-3.84,1.23,6.2,6.2,0,0,1-3.85-.33c-1-.42-2.1-.84-3.09-.14-.34.24-.68.72-1.14.69a2.78,2.78,0,0,1-1.1-.55A3.75,3.75,0,0,0,239,9a3.19,3.19,0,0,0-2,1.32,3,3,0,0,1-.8.76c-.51.28-.94-.09-1.32-.42-1.09-.93-2.15-1.89-3.22-2.84a5.21,5.21,0,0,0-1.49-1.12,2,2,0,0,0-1.68.25,11.87,11.87,0,0,0-3.23,2.8c-.34.41.25,1,.6.59Z"/><path class="cls-13" d="M118.57,65.65a66.94,66.94,0,0,1-11.5.13A22.29,22.29,0,0,1,96.31,62c-1.09.34-1.56,2-1.65,3.17a7.64,7.64,0,0,1-3.56,5.4A30.27,30.27,0,0,1,85,73.38a61.35,61.35,0,0,0-16.55,9.7c-4.26,3.49-5.88,9.24-6.89,14.65-3.21,17.25,1.6,34.9,6.72,51.68a182.26,182.26,0,0,0,6.22,17.91c1.21,2.87,2.63,5.76,5,7.81a19.93,19.93,0,0,0,7.54,3.63,70.75,70.75,0,0,0,48.14-3.17A120.12,120.12,0,0,0,180,172.88a5.4,5.4,0,0,0,2.35-1,5.11,5.11,0,0,0,1.31-3.69,29.81,29.81,0,0,0-3.29-15.26c-6.2,1.5-11.87-3.79-15.06-9.31s-4-12-5.24-18.29a164.39,164.39,0,0,0-9.42-31c-1.26-3.1-2.65-6.24-4.93-8.69-4-4.26-10-5.78-15.36-8S119.12,71.45,118.57,65.65Z"/><path class="cls-14" d="M72.93,91.32a19,19,0,0,1,5,4.38c.72.86,1.39,1.76,2,2.68s1.2,1.85,1.91,2.69c.1.12.28,0,.21-.17A22.15,22.15,0,0,0,80.18,98c-.64-.9-1.3-1.77-2-2.61a18.21,18.21,0,0,0-5.1-4.27.13.13,0,0,0-.13.23Z"/><path class="cls-14" d="M82.1,104.13c2.25,4.67,2.89,10,3.84,15q1.53,8.05,3.14,16.1c.3,1.46.58,2.93.89,4.39s.58,3.09,1,4.59c.07.22.43.19.41,0a81.13,81.13,0,0,0-1.43-8q-.78-4.09-1.6-8.17c-1.07-5.35-2.09-10.72-3.29-16a33.63,33.63,0,0,0-2.71-8c-.1-.19-.38,0-.29.17Z"/><path class="cls-14" d="M91.24,144.53a5.65,5.65,0,0,1,2.87,1.23,13,13,0,0,1,1.85,2.4,4.56,4.56,0,0,0,2.26,1.42l1.75.68a7.08,7.08,0,0,0,1.65.54c.23,0,.26-.28.11-.39a7,7,0,0,0-1.61-.69l-1.76-.67a5.06,5.06,0,0,1-1.59-.8,6.13,6.13,0,0,1-1-1.31A6.18,6.18,0,0,0,91.24,144c-.34,0-.33.48,0,.52Z"/><path class="cls-14" d="M90.89,144.35a11.69,11.69,0,0,0-1.24,1,6.71,6.71,0,0,0-1,1.19c-.1.15.11.28.22.18a23.07,23.07,0,0,1,2.29-1.9.28.28,0,0,0,.1-.37.27.27,0,0,0-.37-.09Z"/><path class="cls-14" d="M90.29,143.48a19.63,19.63,0,0,0-4.75,1.86c-.19.11-.07.43.14.36,1.58-.58,3.14-1.22,4.75-1.73a.25.25,0,0,0-.14-.49Z"/><path class="cls-14" d="M103.56,151.45a48.18,48.18,0,0,0,10.68,3.35c1.87.4,3.75.77,5.61,1.2a35.46,35.46,0,0,1,5.47,1.52c1.92.77,3.67,2.12,4.07,4.26.06.34.64.26.61-.08-.37-3.9-4.69-5.16-7.87-5.92-3.91-.94-7.89-1.46-11.79-2.41a34.22,34.22,0,0,1-6.61-2.21c-.2-.09-.37.2-.17.29Z"/><path class="cls-14" d="M129.23,161.63a11.7,11.7,0,0,0-2.94,4.48,9,9,0,0,0-.49,5.3.17.17,0,0,0,.34,0,20.6,20.6,0,0,1,.77-5,12.61,12.61,0,0,1,2.64-4.42.22.22,0,0,0-.32-.31Z"/><path class="cls-14" d="M129.54,162.27a10,10,0,0,0,3.27,1.12,10.22,10.22,0,0,0,1.66.12,3.36,3.36,0,0,0,1.7-.28l-.2,0,.2,0c.71.17.42-1-.09-.64l-.17.13.2,0a6.07,6.07,0,0,0-1.53.05,10,10,0,0,1-1.64-.1,9.14,9.14,0,0,1-3.06-1c-.38-.2-.72.38-.34.58Z"/><path class="cls-14" d="M125.53,173.17a8.17,8.17,0,0,0,.54,2.77,7,7,0,0,0,1.5,2.33.13.13,0,0,0,.19-.19,8.42,8.42,0,0,1-1.89-4.91.17.17,0,0,0-.34,0Z"/><path class="cls-14" d="M141.16,104.08c1.32,5.66,2.68,11.31,4,17a65.51,65.51,0,0,1,1.44,8.57c.27,2.87.35,5.76.57,8.63a64.26,64.26,0,0,0,3.26,15.87A45.59,45.59,0,0,0,156.28,166c2.75,3.85,6.39,7.44,10.88,9.14.15.06.26-.19.11-.27a29.5,29.5,0,0,1-9.93-8.41,44.52,44.52,0,0,1-6.09-11.73,59.55,59.55,0,0,1-3.38-15.54c-.21-2.83-.24-5.67-.42-8.51a57,57,0,0,0-1.12-8.12c-1.32-6.26-3.05-12.45-4.62-18.66-.09-.35-.63-.2-.55.15Z"/><path class="cls-15" d="M49.08,137.34c7.42,12.21,24.86,26.26,38.06,31.71,14.24,5.89,26.81,17,35.32,29.86,5,7.56,8.1,16.23,12.58,24.11s10.92,15.34,19.65,17.82c10.68,3,14.62,17.83,11.76,28.56s-11.78,19.08-21.88,23.69-21.37,6-32.45,6.75c-21.48,1.51-45,.35-61.54-13.4-14.5-12-20.64-31.15-25.95-49.23C21.79,227.52,19,217.52,20,207.48c.79-7.25,3.58-14.12,6.35-20.87C31.37,174.47,40.37,147.16,49.08,137.34Z"/><path class="cls-16" d="M161.27,167.93c-3.48-2.2-7.65-3.56-11.71-2.9-3.33.54-6.38,2.66-9.75,2.62-.93,0-1.86-.08-2.79-.15a12,12,0,0,1-.22,1.46,27.67,27.67,0,0,1-2,5.55l-.19.37c.82.16,1.63.35,2.42.58,2.83.79,5.67,1.83,8.61,1.71,2.22-.09,4.37-.83,6.59-.81,2.69,0,5.23,1.19,7.88,1.65a15.33,15.33,0,0,0,10.36-1.93A51.18,51.18,0,0,0,161.27,167.93Z"/><path class="cls-14" d="M136.11,163.24a10.41,10.41,0,0,1,.11,6.73c-.25,1-.55,2-.88,2.95-.17.5-.34,1-.53,1.48a3.26,3.26,0,0,0-.36,1.21.21.21,0,0,0,.35.14,2.55,2.55,0,0,0,.59-1.1q.3-.77.57-1.56c.37-1.08.71-2.18,1-3.3a10.57,10.57,0,0,0-.29-6.78c-.13-.31-.68-.08-.55.23Z"/><path class="cls-17" d="M148.87,181.73q13.69,4,27,9.21,6.72,2.63,13.3,5.56a86.36,86.36,0,0,1,12.25,6.11,21.65,21.65,0,0,1,5.42,4.9,16.61,16.61,0,0,1,2.82,6.14.16.16,0,0,0,.32,0c-.18-4-3-7.56-6-9.93-3.61-2.87-7.94-4.71-12.1-6.6q-13.23-6-27-10.82Q157,183.52,149,181.17a.29.29,0,0,0-.16.56Z"/><path class="cls-17" d="M184.73,227.82a23.8,23.8,0,0,1,5.67-6.72c.22-.18-.07-.56-.3-.39a21.4,21.4,0,0,0-6,6.75c-.23.4.39.76.61.36Z"/><path class="cls-17" d="M185.08,230.24a11.41,11.41,0,0,1,5.42-2l-.23-.56a11.65,11.65,0,0,1-2.23,2.15,27.26,27.26,0,0,1-2.64,1.6.27.27,0,0,0,.21.5,8.8,8.8,0,0,0,2.81-1.55,14.83,14.83,0,0,0,2.31-2.24c.17-.19.08-.58-.23-.56a11.21,11.21,0,0,0-3,.58,11.45,11.45,0,0,0-2.76,1.42c-.4.28,0,.93.38.65Z"/><path class="cls-17" d="M232.67,221.94c1.43-1.2,2.91-2.37,4.26-3.66.17-.16-.05-.46-.24-.32-1.54,1.11-3,2.37-4.42,3.58-.29.23.12.64.4.4Z"/><path class="cls-17" d="M233.33,223.92a8.53,8.53,0,0,1,3-.5,15,15,0,0,1,3,.41c.34.08.58-.4.25-.58a8.12,8.12,0,0,0-6.43-.19c-.53.2-.3,1.05.24.86Z"/><path class="cls-18" d="M131,181.32l2.16-4.09a3.18,3.18,0,0,1,2.81-1.71h32.27L181,126.31a5,5,0,0,1,5-3.78l60.32,1.83a5.05,5.05,0,0,1,4.77,6.19l-10.77,46.33a5.37,5.37,0,0,1-5.21,4.15Z"/><path class="cls-19" d="M218.22,134.85a3.94,3.94,0,0,0-4.54.8,5,5,0,0,0-1.19,5,3.8,3.8,0,0,0,6.39,1.51,4.5,4.5,0,0,0,1.1-2.8,5.57,5.57,0,0,0-.65-2.94,4.93,4.93,0,0,0-2-2c-.6-.34-1.06.65-.37.9A3.85,3.85,0,0,1,219,138.6a3.22,3.22,0,0,1-2.21,3.62,2.81,2.81,0,0,1-3.2-1.48,4.12,4.12,0,0,1,.34-4,3.25,3.25,0,0,1,3.9-1.26c.43.2.81-.42.38-.64Z"/><path class="cls-15" d="M57.37,141.28c3.8,10.26,12.87,17.64,22.26,23.26s19.58,10.09,27.93,17.16c9.64,8.15,16.27,19.32,21.36,30.86,4.55,10.33,9.19,22.34,19.78,26.25"/><path class="cls-15" d="M57.08,141.36c3.07,8.32,9.51,14.74,16.62,19.8,7.92,5.64,16.87,9.6,25.1,14.74a67.12,67.12,0,0,1,11.71,9,69.25,69.25,0,0,1,9,10.94,103.74,103.74,0,0,1,7,12.32c1.88,3.87,3.51,7.85,5.33,11.76C135,226.86,139,234.31,146,238a18.94,18.94,0,0,0,2.62,1.12c.43.15.58-.5.18-.66a23.65,23.65,0,0,1-9.16-6.79,48.94,48.94,0,0,1-6.26-10.14c-1.81-3.7-3.34-7.53-5.06-11.28a109.13,109.13,0,0,0-6.6-12.41,76.25,76.25,0,0,0-8.32-11.09,63,63,0,0,0-10.69-9.28C94.7,172,85.78,168,77.56,162.8,70.14,158.12,63,152.21,59,144.25a33.15,33.15,0,0,1-1.34-3.05c-.13-.36-.72-.21-.58.16Z"/><path class="cls-15" d="M138.72,224.09a4.36,4.36,0,0,0-1.29,2,4.16,4.16,0,0,0-.21,1.16c0,.34,0,.94.29,1.14a.2.2,0,0,0,.28-.07.88.88,0,0,0,.07-.51,4.69,4.69,0,0,1,0-.53,4.42,4.42,0,0,1,.16-1,4.1,4.1,0,0,1,1.08-1.75c.27-.25-.12-.63-.39-.4Z"/><path class="cls-15" d="M151.55,237.73q6.85.45,13.71.83a107.34,107.34,0,0,0,13.3.28,27,27,0,0,0,7.09-1.26.32.32,0,0,0-.16-.61,43,43,0,0,1-6.46,1.12,58.17,58.17,0,0,1-6.47.13c-4.45-.12-8.9-.45-13.35-.65-2.56-.12-5.11-.22-7.66-.32-.31,0-.3.46,0,.48Z"/><path class="cls-15" d="M149.9,240a27.38,27.38,0,0,1,4.35,2,40,40,0,0,1,3.91,2.65c.24.17.52-.21.32-.41a21,21,0,0,0-8.45-4.72c-.29-.09-.39.34-.13.44Z"/><path class="cls-15" d="M212.44,233.13c3.29,0,6.57-.26,9.85-.58,1.57-.15,3.13-.33,4.7-.54l2.41-.35a8.7,8.7,0,0,0,2.33-.48c.28-.14.1-.51-.15-.54a9.13,9.13,0,0,0-2.26.27l-2.56.37c-1.57.2-3.14.4-4.72.56-3.19.34-6.39.55-9.6.73a.28.28,0,0,0,0,.56Z"/></g></g></svg>