<svg xmlns="http://www.w3.org/2000/svg" viewBox="0 0 444.3 285.44"><defs><style>.cls-1{fill:#173259;}.cls-2{fill:#071736;}.cls-3{fill:#f37b78;}.cls-4{fill:#d6505b;}.cls-5{fill:#f79e83;}.cls-6{fill:#f37873;}.cls-7{fill:#fabdac;}.cls-8{fill:#fff;}.cls-9{fill:#045388;}.cls-10{fill:#292e16;}.cls-11{fill:#1c2112;}.cls-12{fill:#3d74a9;}</style></defs><title>Asset 1</title><g id="Layer_2" data-name="Layer 2"><g id="Layer_1-2" data-name="Layer 1"><path class="cls-1" d="M334.61,269c.19-3.18.37-6.21.54-9,.67-11.48,1.11-19.31,1.11-19.31l-4.5-.2-2.53-.12L298.68,239s-.56,8.76-1.21,21.62c-.14,2.63-.27,5.44-.41,8.37Z"/><path class="cls-2" d="M331.76,240.44l4.5.2s-.44,7.83-1.11,19.31a274.85,274.85,0,0,1-37.68.64c.65-12.86,1.21-21.62,1.21-21.62l30.55,1.35Z"/><path class="cls-2" d="M330.16,269c.71-12.26,1.29-22.76,1.6-28.52l-2.53-.11c-.32,5.79-.9,16.33-1.61,28.63Z"/><path class="cls-1" d="M344.46,269H382c-.14-2.93-.28-5.74-.41-8.37-.66-12.86-1.21-21.62-1.21-21.62l-30.55,1.35-2.54.12-4.49.2s.43,7.83,1.11,19.31C344.08,262.75,344.26,265.78,344.46,269Z"/><path class="cls-2" d="M347.3,240.44l-4.49.2s.43,7.83,1.11,19.31a274.82,274.82,0,0,0,37.68.64c-.66-12.86-1.21-21.62-1.21-21.62l-30.55,1.35Z"/><path class="cls-2" d="M351.45,269c-.71-12.3-1.3-22.84-1.61-28.63l-2.54.11c.32,5.76.9,16.26,1.61,28.52Z"/><path class="cls-3" d="M386,251.05c-31.58,6.41-62.44,5.32-93.5-1.08,0-36.74-.37-56.09-.28-65.39,0-1.26,0-2.51,0-3.76,0-.58,0-1.16,0-1.75l0-2.63c0-.24,0-.49,0-.74s0-.56,0-.85v-.17l0-2.07c0-.54,0-1.08,0-1.62s0-.92,0-1.38c0-.75,0-1.51,0-2.27,0-.19,0-.38,0-.57l.06-3.83v-.11c0-1.37.05-2.74.08-4.11.1-5.15.21-10.21.33-15.09,0-1,.06-2.08.09-3.1.61-22,1.59-39.78,3.12-45.33a5.38,5.38,0,0,1,.57-1.47,9.57,9.57,0,0,1,.79-1,14.57,14.57,0,0,1,1.3-1.32,64.74,64.74,0,0,1,12.6-9c.69-.4,3.86-2,4.59-2.28,6.21-2.62,16.08-5.45,16.18-5.51l16.72,1.17c2,1.18,17.81,6.55,19.76,7.76l1.69,1.07c4.55,2.94,8.41,5.85,10.1,8.32,1.26,1.85,2.26,11.32,3.05,24.87,0,.67.08,1.34.11,2,.62,11.09,1.1,24.66,1.47,38.89,0,1.41.07,2.81.11,4.22,0,.18,0,.36,0,.53l.06,2.41,0,.89c0,1.4.06,2.81.09,4.22s.05,2.57.08,3.86c0,.72,0,1.43,0,2.15s0,1.38,0,2.07c.05,3,.11,5.93.15,8.88.1,5.93.19,11.78.26,17.41,0,.63,0,1.27,0,1.91C386,208.7,386,221.41,386,251.05Z"/><path class="cls-4" d="M383.59,119.83,375.47,117a.94.94,0,0,1,.63-1.78l7.38,2.6C383.52,118.47,383.56,119.14,383.59,119.83Z"/><path class="cls-4" d="M299.52,135.41l-6.6,8.22c0-1,.06-2.08.09-3.1l5.05-6.3a.94.94,0,0,1,1.46,1.18Z"/><path class="cls-4" d="M369.2,221.56h0c-16.81-.08-31.16-7.73-40.23-14.13a91.15,91.15,0,0,1-15.82-14,.81.81,0,0,1,.09-1.14.8.8,0,0,1,1.14.1,90.87,90.87,0,0,0,15.56,13.75c8.88,6.26,22.9,13.74,39.27,13.81a.8.8,0,0,1,.8.81A.81.81,0,0,1,369.2,221.56Z"/><path class="cls-4" d="M351.69,227.27c-14.59,0-29.13-8.31-29.8-8.7a.81.81,0,0,1,.81-1.4c.18.1,17.29,9.88,32.46,8.31a.79.79,0,0,1,.89.72.79.79,0,0,1-.72.88A34.14,34.14,0,0,1,351.69,227.27Z"/><path class="cls-4" d="M292.51,162.83v.11h92.66c0-1.41-.07-2.82-.11-4.22H292.59C292.56,160.09,292.54,161.46,292.51,162.83Z"/><path class="cls-4" d="M292.39,171h93c0-1.41-.07-2.82-.1-4.22H292.45c0,.19,0,.38,0,.57l0,2.27C292.41,170.07,292.4,170.53,292.39,171Z"/><path class="cls-4" d="M292.29,179.07h93.24c0-.69,0-1.38,0-2.07s0-1.43,0-2.15h-93.1c0,.29,0,.57,0,.85s0,.5,0,.74Z"/><path class="cls-4" d="M344.85,110.94a.87.87,0,0,0,.16-1.72c-22-4.18-28.64-18.33-28.7-18.47a.87.87,0,1,0-1.58.71c.27.62,7.07,15.12,29.95,19.47Z"/><path class="cls-1" d="M315.67,23.84s-1.64-10,.79-13.42S322.86,8,327.1,4.11s17.15-.17,22.8-1.2c3.11-.56,6.42-.14,9.46-.76,4.35-.88,6.68,3.44,5.63,7.7-.66,2.71-2,6.78-5.94,7.84C359.05,17.69,321.48,10.84,315.67,23.84Z"/><path class="cls-1" d="M314.81,31.85c0,14.51,8.93,24.51,23.44,24.51S362.87,45.6,362.87,31.1s-8.59-25.51-23.1-25.51C322.37,5.59,314.81,17.34,314.81,31.85Z"/><path class="cls-5" d="M318.07,38.09s-4-5.37-7-.93,1.24,17.58,8.58,14.37Z"/><path class="cls-6" d="M318,47.47a.63.63,0,0,1-.6-.45c-1.13-4.05-5.33-5.69-5.38-5.71a.62.62,0,0,1,.44-1.16c.2.07,4.83,1.87,6.14,6.54a.62.62,0,0,1-.43.76A.5.5,0,0,1,318,47.47Z"/><path class="cls-6" d="M313.78,45.43a.58.58,0,0,1-.33-.1.62.62,0,0,1-.19-.85,5.63,5.63,0,0,1,2.33-1.88.62.62,0,0,1,.82.31.62.62,0,0,1-.32.82,4.53,4.53,0,0,0-1.79,1.42A.6.6,0,0,1,313.78,45.43Z"/><path class="cls-5" d="M359.62,38.09s4-5.37,7-.93-1.24,17.58-8.58,14.37Z"/><path class="cls-6" d="M359.67,47.47a.61.61,0,0,0,.59-.45c1.14-4.05,5.34-5.69,5.38-5.71a.62.62,0,0,0-.44-1.16c-.19.07-4.82,1.87-6.13,6.54a.62.62,0,0,0,.43.76A.5.5,0,0,0,359.67,47.47Z"/><path class="cls-6" d="M363.91,45.43a.58.58,0,0,0,.33-.1.62.62,0,0,0,.19-.85,5.72,5.72,0,0,0-2.33-1.88.62.62,0,0,0-.51,1.13,4.44,4.44,0,0,1,1.79,1.42A.63.63,0,0,0,363.91,45.43Z"/><path class="cls-7" d="M348.77,62.67v13s-3.9,6.65-9.16,7.1-9.94-5.72-9.94-5.72V63.58Z"/><path class="cls-5" d="M348.77,62.67v5.79c-3.54,3.92-9.81,4.9-19.1,3.53V63.58Z"/><path class="cls-7" d="M315.93,37.85c.06.75.12,1.52.19,2.29.2,2,.46,3.94.82,5.93l0,.2c1.76,9.63,5.7,19.09,14.19,22.13,19.24,6.87,26.11-9.63,28.86-19.25.3-1.07.58-2.25.82-3.52l0-.16c.27-1.43.5-2.94.69-4.5.15-1.16.27-2.34.38-3.52.29-2.87.47-5.76.59-8.31a13.58,13.58,0,0,0-8.7-13.33c-7.89-3-19.87-5.43-31.23,1a13.63,13.63,0,0,0-6.91,11.6C315.64,31.07,315.68,34.34,315.93,37.85Z"/><path class="cls-1" d="M330.7,38.86c0,1.39-.72,2.52-1.6,2.52s-1.61-1.13-1.61-2.52.72-2.52,1.61-2.52S330.7,37.47,330.7,38.86Z"/><path class="cls-1" d="M349.9,38.86c0,1.39-.72,2.52-1.6,2.52s-1.61-1.13-1.61-2.52.72-2.52,1.61-2.52S349.9,37.47,349.9,38.86Z"/><path class="cls-1" d="M353.65,30.54s-5.06-2-9-.31l.39,2.16s5.72-.48,8.61.69A3.82,3.82,0,0,0,353.65,30.54Z"/><path class="cls-1" d="M323.64,30.54s5.06-2,9-.31l-.39,2.16s-5.72-.48-8.61.69A3.82,3.82,0,0,1,323.64,30.54Z"/><path class="cls-5" d="M339.47,49.8a6.33,6.33,0,0,1-2.28-.2.62.62,0,1,1,.32-1.19,3.76,3.76,0,0,0,2.5-.07.67.67,0,0,0,.23-.61c0-2.18-1.51-9.31-1.52-9.38a.63.63,0,0,1,.48-.74.62.62,0,0,1,.73.48,91.58,91.58,0,0,1,1.55,9.62,1.87,1.87,0,0,1-.71,1.61A2.66,2.66,0,0,1,339.47,49.8Z"/><path class="cls-8" d="M331,53.52c.51,2.55,2.2,7.24,7.87,7.24s7.28-4.28,7.83-7.24Z"/><path class="cls-1" d="M361.87,38.2h-2.81c.31-2.82-.71-6.23-1.56-8.5-1.92-5.15,2.17-7.42-1.14-10S344.83,18.22,339.11,18s-15-.1-17.26.42-1,4.25-.19,7.15-2.76,6.09-3.36,9.08a13.22,13.22,0,0,0,0,3.52H316c-.28-3.64-.32-7-.27-9.79a13.6,13.6,0,0,1,6.91-11.59c11.36-6.44,23.34-4,31.23-1a13.59,13.59,0,0,1,8.7,13.33C362.4,31.92,362.19,35.08,361.87,38.2Z"/><path class="cls-3" d="M296.7,93.73l-41.59,58.84,9.11,23.71L293,140.64S298.47,116,296.7,93.73Z"/><path class="cls-3" d="M433.21,125.59c-1.91,3.4-6.6,4.15-12.42,3.43a68.06,68.06,0,0,1-11.71-2.74c-13.84-4.36-28.19-9.4-28.19-9.4l-12.76-33.6s14,6.43,32.74,14.67c2.58,1.14,5.11,2.23,7.53,3.25,1.59.67,3.13,1.32,4.6,1.92l1.83.73s.06-.23.16-.66c.54-2.23,2.37-9.92,4.56-19.58,2.84-12.5,5.22-31.76,5.22-31.76l10.54,2.79S440.28,113,433.21,125.59Z"/><path class="cls-4" d="M416.33,111a.94.94,0,0,1-1.17-.63L413,103.12l1.83.73s.06-.23.16-.66l2,6.6A1,1,0,0,1,416.33,111Z"/><path class="cls-7" d="M430.48,56.24a10.29,10.29,0,0,1-9.12-2.71,8.11,8.11,0,0,1-2-3c-1.51-4.2-6.11-12.86-2.07-15.31,1.47-.89,1.7,3.89,4.78,6.34a62.66,62.66,0,0,0,4.16-8.82c1.21-3.49,4.27-9.9,5.71-12.86a.89.89,0,0,1,1.69.27c.09,1.44-.34,4-2.29,8.47,0,0,5.24-10.58,7.38-10.51s-4.65,13.18-4.65,13.18,6.27-9.44,7.85-8.65c1,.49-4.11,11.31-4.11,11.31s6.66-8.4,6.45-5.34c-.06.89-9.52,16.22-9,26A18.73,18.73,0,0,1,430.48,56.24Z"/><path class="cls-1" d="M93.77,269c.18-3.18.35-6.21.5-9,.62-11.48,1-19.31,1-19.31l-4.15-.2-2.34-.12L60.59,239s-.51,8.76-1.12,21.62c-.12,2.63-.25,5.44-.38,8.37Z"/><path class="cls-2" d="M91.14,240.44l4.15.2s-.4,7.83-1,19.31a234.49,234.49,0,0,1-34.8.64c.61-12.86,1.12-21.62,1.12-21.62l28.21,1.35Z"/><path class="cls-2" d="M89.66,269c.65-12.26,1.19-22.76,1.48-28.52l-2.34-.11c-.29,5.79-.83,16.33-1.48,28.63Z"/><path class="cls-1" d="M102.86,269h34.68c-.13-2.93-.25-5.74-.38-8.37C136.56,247.73,136,239,136,239l-28.21,1.35-2.34.12-4.15.2s.4,7.83,1,19.31C102.52,262.75,102.69,265.78,102.86,269Z"/><path class="cls-2" d="M105.49,240.44l-4.15.2s.4,7.83,1,19.31a234.35,234.35,0,0,0,34.79.64C136.56,247.73,136,239,136,239l-28.21,1.35Z"/><path class="cls-2" d="M109.32,269c-.66-12.3-1.2-22.84-1.49-28.63l-2.34.11c.29,5.76.83,16.26,1.48,28.52Z"/><path class="cls-1" d="M98.63.19S75.55-2.13,69.4,31.87s-10.29,55.32-8.9,73.4,60.71,13.27,69.91,4.19-.84-69.75-3.12-85.88S107.8-1.42,98.63.19Z"/><path class="cls-3" d="M62.14,163.25q.16,3.1.27,6.25C62.84,182,58.6,200,57.1,243.72c24.29,7.3,55.75,6.27,83.62-.09-1.5-43.71-4.58-61.6-4.16-74.13.16-4.47.39-8.87.66-13.16,1-15.47,2.7-29.54,3.81-40.19,1.14-10.83,1.69-18.14.37-19.81a24.86,24.86,0,0,0-5.3-4.55,131.26,131.26,0,0,0-12.41-7.21l-2.5-1.31c-5.12-2.66-9.86-5.06-12.56-6.86-3.36,1.46-6,2.27-8.9,2.25h-.49c-2.87,0-5.54-.79-8.89-2.25-2.87,1.91-8.16,4.57-13.75,7.5-1,.52-2,1-3,1.59-2.8,1.5-5.59,3-8.09,4.57-1.06.65-2.07,1.3-3,1.94A25.12,25.12,0,0,0,57,96.7c-2.66,3.36,2.77,29.38,4.85,61.21C61.94,159.67,62.05,161.46,62.14,163.25Z"/><path class="cls-4" d="M128.45,201.5h0c-16.86-.07-31.25-7.75-40.36-14.17a92.94,92.94,0,0,1-15.87-14.05.82.82,0,0,1,.1-1.15.81.81,0,0,1,1.14.1A91,91,0,0,0,89.07,186c8.9,6.28,23,13.78,39.38,13.85a.81.81,0,0,1,0,1.62Z"/><path class="cls-4" d="M117.29,191.68c-14.36-2.82-27.06-13.81-27.64-14.32a.81.81,0,0,1-.08-1.14.82.82,0,0,1,1.15-.08c.15.13,15.1,13.06,30.34,14.45a.81.81,0,0,1-.15,1.62A34.33,34.33,0,0,1,117.29,191.68Z"/><path class="cls-4" d="M93,112.07a.81.81,0,0,1-.15-1.61c20.55-3.9,26.75-17.12,26.81-17.26a.8.8,0,0,1,1.07-.4.81.81,0,0,1,.41,1.07c-.26.58-6.62,14.13-28,18.18Z"/><path class="cls-7" d="M121.19,83.27C116.31,91.52,107.84,100,97,98.07,87,96.35,80.86,89.93,76.6,83.91c5.59-2.93,10.88-5.59,13.75-7.5,3.35,1.46,6,2.27,8.89,2.25h.49c2.87,0,5.54-.79,8.9-2.25C111.33,78.21,116.07,80.61,121.19,83.27Z"/><path class="cls-8" d="M83.8,81.42a1.73,1.73,0,0,1-.32,0,1.71,1.71,0,0,1-.3-.09,1.51,1.51,0,0,1-.28-.15,2.12,2.12,0,0,1-.24-.2,1.61,1.61,0,0,1-.47-1.14,1.6,1.6,0,0,1,.12-.61,1.51,1.51,0,0,1,.15-.28,1.59,1.59,0,0,1,.2-.24,1.41,1.41,0,0,1,.24-.2,1.51,1.51,0,0,1,.28-.15l.3-.09a1.34,1.34,0,0,1,.63,0,1.58,1.58,0,0,1,.31.09,1.43,1.43,0,0,1,.27.15,1.16,1.16,0,0,1,.25.2,1.59,1.59,0,0,1,.2.24,1.47,1.47,0,0,1,.14.28,1.76,1.76,0,0,1,.1.3,1.71,1.71,0,0,1,0,.31A1.61,1.61,0,0,1,84.94,81a1.57,1.57,0,0,1-.25.2,1.43,1.43,0,0,1-.27.15,1.58,1.58,0,0,1-.31.09A1.63,1.63,0,0,1,83.8,81.42Z"/><path class="cls-8" d="M100.34,123h0a1.63,1.63,0,0,1-1.89,1.27h0a1.61,1.61,0,0,1-1.27-1.87h0a1.61,1.61,0,0,1-2.19.54h0a1.6,1.6,0,0,1-.59-2.17h0a1.62,1.62,0,0,1-2.24-.08h0a1.62,1.62,0,0,1,0-2.23h0a1.62,1.62,0,0,1-2.16-.51h0a1.6,1.6,0,0,1,.39-2.17h0a1.63,1.63,0,0,1-2.06-.79h0a1.61,1.61,0,0,1,.65-2.1h0a1.61,1.61,0,0,1-2-1h0a1.61,1.61,0,0,1,.81-2h0A1.59,1.59,0,0,1,86,108.75h0a1.6,1.6,0,0,1,.94-2h0a1.61,1.61,0,0,1-1.81-1.2h0a1.61,1.61,0,0,1,1-1.91h0a1.6,1.6,0,0,1-1.75-1.28h0a1.59,1.59,0,0,1,1.11-1.86h0a1.62,1.62,0,0,1-1.7-1.35h0A1.61,1.61,0,0,1,85,97.37h0A1.61,1.61,0,0,1,83.31,96h0a1.61,1.61,0,0,1,1.23-1.78h0a1.6,1.6,0,0,1-1.61-1.44h0A1.61,1.61,0,0,1,84.2,91h0a1.6,1.6,0,0,1-1.57-1.48h0a1.6,1.6,0,0,1,1.31-1.71h0A1.61,1.61,0,0,1,82.4,86.3h0a1.62,1.62,0,0,1,1.37-1.69h0a1.61,1.61,0,0,1-1.52-1.55h0A1.61,1.61,0,0,1,83.8,81.4h0A1.62,1.62,0,0,1,85.47,83h0A1.61,1.61,0,0,1,84.1,84.6h0a1.6,1.6,0,0,1,1.51,1.51h0a1.6,1.6,0,0,1-1.32,1.68h0a1.6,1.6,0,0,1,1.54,1.48h0A1.61,1.61,0,0,1,84.55,91h0a1.61,1.61,0,0,1,1.58,1.44h0a1.61,1.61,0,0,1-1.24,1.74h0a1.62,1.62,0,0,1,1.62,1.39h0a1.62,1.62,0,0,1-1.19,1.77h0A1.61,1.61,0,0,1,87,98.67h0a1.61,1.61,0,0,1-1.13,1.8h0a1.61,1.61,0,0,1,1.69,1.29h0a1.61,1.61,0,0,1-1,1.84h0a1.59,1.59,0,0,1,1.73,1.21h0a1.61,1.61,0,0,1-1,1.89h0A1.6,1.6,0,0,1,89,107.82h0a1.61,1.61,0,0,1-.85,1.92h0a1.62,1.62,0,0,1,1.84,1h0a1.62,1.62,0,0,1-.7,2h0a1.6,1.6,0,0,1,1.9.84h0a1.61,1.61,0,0,1-.49,2h0a1.63,1.63,0,0,1,2,.61h0a1.64,1.64,0,0,1-.18,2h0a1.6,1.6,0,0,1,2,.27h0a1.61,1.61,0,0,1,.25,1.91h0a1.59,1.59,0,0,1,1.89-.19h0a1.61,1.61,0,0,1,.77,1.67h0a1.59,1.59,0,0,1,1.67-.73h0a1.61,1.61,0,0,1,1.29,1.31h0a1.6,1.6,0,0,1,1.3-1.27h0a1.59,1.59,0,0,1,1.62.7h0a1.61,1.61,0,0,1,.69-1.63h0a1.62,1.62,0,0,1,1.87,0h0a1.59,1.59,0,0,1,.08-1.89h0a1.62,1.62,0,0,1,1.92-.46h0a1.61,1.61,0,0,1-.38-2h0a1.6,1.6,0,0,1,1.87-.81h0a1.62,1.62,0,0,1-.69-1.94h0a1.61,1.61,0,0,1,1.8-1h0a1.61,1.61,0,0,1-.89-1.88h0a1.61,1.61,0,0,1,1.73-1.19h0a1.63,1.63,0,0,1-1-1.83h0a1.63,1.63,0,0,1,1.67-1.29h0a1.6,1.6,0,0,1-1.13-1.78h0a1.61,1.61,0,0,1,1.62-1.37h0a1.61,1.61,0,0,1-1.21-1.74h0a1.61,1.61,0,0,1,1.56-1.43h0a1.62,1.62,0,0,1-1.27-1.7h0A1.62,1.62,0,0,1,113,96.45h0a1.61,1.61,0,0,1-1.32-1.66h0a1.61,1.61,0,0,1,1.48-1.52h0a1.61,1.61,0,0,1-1.36-1.64h0a1.61,1.61,0,0,1,1.45-1.56h0a1.59,1.59,0,0,1-1.4-1.6h0a1.6,1.6,0,0,1,1.4-1.59h0a1.62,1.62,0,0,1-1.43-1.57h0a1.61,1.61,0,0,1,1.37-1.62h0a1.6,1.6,0,0,1-1.45-1.54h0a1.6,1.6,0,0,1,1.54-1.67h0A1.6,1.6,0,0,1,115,82h0a1.6,1.6,0,0,1-1.36,1.65h0A1.61,1.61,0,0,1,115,85.25h0a1.61,1.61,0,0,1-1.4,1.63h0a1.6,1.6,0,0,1,1.43,1.6h0a1.62,1.62,0,0,1-1.45,1.6h0a1.61,1.61,0,0,1,1.4,1.64h0a1.6,1.6,0,0,1-1.48,1.56h0A1.61,1.61,0,0,1,114.9,95h0a1.61,1.61,0,0,1-1.53,1.53h0a1.6,1.6,0,0,1,1.32,1.71h0a1.6,1.6,0,0,1-1.57,1.48h0a1.62,1.62,0,0,1,1.27,1.76h0a1.62,1.62,0,0,1-1.63,1.43h0a1.61,1.61,0,0,1,1.21,1.8h0a1.62,1.62,0,0,1-1.68,1.37h0a1.61,1.61,0,0,1,1.11,1.86h0a1.61,1.61,0,0,1-1.76,1.28h0a1.6,1.6,0,0,1,1,1.93h0a1.6,1.6,0,0,1-1.84,1.17h0a1.6,1.6,0,0,1,.85,2h0a1.61,1.61,0,0,1-2,1h0a1.61,1.61,0,0,1,.61,2.12h0a1.61,1.61,0,0,1-2.1.73h0a1.61,1.61,0,0,1,.22,2.23h0a1.62,1.62,0,0,1-2.24.28h0a1.61,1.61,0,0,1-.45,2.23h0a1.61,1.61,0,0,1-2.23-.45h0v0h0a1.61,1.61,0,0,1-1.31,1.86h0a1.27,1.27,0,0,1-.28,0h0A1.61,1.61,0,0,1,100.34,123Z"/><path class="cls-8" d="M113.18,80.52a1.73,1.73,0,0,1-.32,0c-.1,0-.2-.06-.3-.09a1.51,1.51,0,0,1-.28-.15,1.59,1.59,0,0,1-.24-.2,1.63,1.63,0,0,1-.47-1.14,1.73,1.73,0,0,1,0-.32,1.71,1.71,0,0,1,.09-.3,1.43,1.43,0,0,1,.15-.27,1.57,1.57,0,0,1,.2-.25,1.59,1.59,0,0,1,.24-.2,1.51,1.51,0,0,1,.28-.15,1.71,1.71,0,0,1,.3-.09,1.67,1.67,0,0,1,.63,0,1.49,1.49,0,0,1,.3.09,1.51,1.51,0,0,1,.28.15,1.45,1.45,0,0,1,.45.45,2.29,2.29,0,0,1,.14.27,1.14,1.14,0,0,1,.09.3,1.17,1.17,0,0,1,0,.32,1.64,1.64,0,0,1-.48,1.14,1.59,1.59,0,0,1-.24.2,1.51,1.51,0,0,1-.28.15,2.63,2.63,0,0,1-.3.09A1.63,1.63,0,0,1,113.18,80.52Z"/><path class="cls-5" d="M79.12,39.63s-5-5.73-7.8-1.72,1.15,16.42,7.84,13.57Z"/><path class="cls-6" d="M77.57,47.33a.57.57,0,0,1-.54-.42c-1-3.69-4.79-5.21-4.83-5.23a.56.56,0,1,1,.41-1,9.66,9.66,0,0,1,5.51,6,.57.57,0,0,1-.4.69Z"/><path class="cls-6" d="M73.74,45.44a.55.55,0,0,1-.3-.09.56.56,0,0,1-.16-.78,5.09,5.09,0,0,1,2.12-1.69.58.58,0,0,1,.75.3.57.57,0,0,1-.3.74,4,4,0,0,0-1.63,1.27A.58.58,0,0,1,73.74,45.44Z"/><path class="cls-5" d="M119.16,39.63s5-5.73,7.8-1.72-1.15,16.42-7.84,13.57Z"/><path class="cls-6" d="M120.71,47.33a.57.57,0,0,0,.54-.42c1-3.69,4.79-5.21,4.83-5.23a.56.56,0,0,0-.4-1,9.64,9.64,0,0,0-5.52,6,.57.57,0,0,0,.4.69Z"/><path class="cls-6" d="M124.54,45.44a.56.56,0,0,0,.46-.87,5.09,5.09,0,0,0-2.12-1.69.56.56,0,0,0-.74.3.56.56,0,0,0,.29.74,4,4,0,0,1,1.63,1.27A.58.58,0,0,0,124.54,45.44Z"/><path class="cls-7" d="M108.7,63.68V76.42s-3.8,6.48-8.94,6.92-9.69-5.58-9.69-5.58V64.58Z"/><path class="cls-5" d="M108.7,63.68v5.65c-3.45,3.83-9.57,5.18-18.62,3.84V64.58Z"/><path class="cls-7" d="M122.12,31a121.74,121.74,0,0,1-1.65,16.08c-.23,1.24-.5,2.4-.8,3.44C117,59.88,110.29,76,91.52,69.27c-8.28-3-12.13-12.19-13.84-21.58a91.22,91.22,0,0,1-1.25-17.42A13.28,13.28,0,0,1,83.18,19c11.07-6.28,22.76-3.94,30.46-1A13.23,13.23,0,0,1,122.12,31Z"/><path class="cls-1" d="M96.18,18.22S87.9,32.46,79,34.79c-.44,2.37-1.23,5.49-2.3,5.31-1.23-.2-1.27-3.33-1.19-5.08-8.35-1.45.15-20.56,13.24-20.82Z"/><path class="cls-1" d="M123.05,32.18s-1,8.2-2.71,7.92-1.12-6.24-1.12-6.24l.29-.13c-33.26-2-30.72-19.29-30.72-19.29,35.14-7.66,33.9,10.53,34.26,17Z"/><path class="cls-1" d="M90.75,40.46c0,1.36-.7,2.46-1.56,2.46s-1.57-1.1-1.57-2.46S88.32,38,89.19,38,90.75,39.1,90.75,40.46Z"/><path class="cls-1" d="M110.08,40.46c0,1.36-.7,2.46-1.57,2.46S107,41.82,107,40.46s.7-2.46,1.56-2.46S110.08,39.1,110.08,40.46Z"/><path class="cls-1" d="M86.09,33.13a26.52,26.52,0,0,1,6.69-1,1.16,1.16,0,0,1,1.16,1.36v0a1.17,1.17,0,0,1-1.2,1c-1.88-.09-6.83.18-9.16,1.12a1.73,1.73,0,0,1,.53-1.24A4,4,0,0,1,86.09,33.13Z"/><path class="cls-1" d="M111.37,33.18a26.52,26.52,0,0,0-6.69-1,1.16,1.16,0,0,0-1.16,1.36v0a1.17,1.17,0,0,0,1.2.95c1.88-.09,6.83.18,9.17,1.13a1.81,1.81,0,0,0-.54-1.25A4,4,0,0,0,111.37,33.18Z"/><path class="cls-5" d="M99.23,51.69a2.58,2.58,0,0,1-1.32-.31A1.88,1.88,0,0,1,97,49.9a87.88,87.88,0,0,1,.37-9.49.6.6,0,0,1,1.2.1c0,.07-.58,7.15-.36,9.26a.65.65,0,0,0,.29.57,3.65,3.65,0,0,0,2.43-.23.6.6,0,0,1,.79.33.61.61,0,0,1-.33.79A6.59,6.59,0,0,1,99.23,51.69Z"/><path class="cls-8" d="M91.55,55.51c.45,2.3,2,6.53,7.09,6.53s6.58-3.86,7.07-6.53Z"/><path class="cls-5" d="M98.57,65.58a6.13,6.13,0,0,1-2.84-.83.61.61,0,0,1-.19-.84.6.6,0,0,1,.83-.19h0a4.92,4.92,0,0,0,2.2.65,5,5,0,0,0,2.32-.66.61.61,0,0,1,.63,1A6.36,6.36,0,0,1,98.57,65.58Z"/><path class="cls-1" d="M75.11,28.55c0,.14-.1.82-.2,1.81A13.36,13.36,0,0,1,75.11,28.55Z"/><path class="cls-8" d="M101.58,41.75a7.36,7.36,0,1,1,7.35,7.36A7.36,7.36,0,0,1,101.58,41.75Zm1.15,0a6.21,6.21,0,1,0,6.2-6.21A6.21,6.21,0,0,0,102.73,41.75Z"/><path class="cls-8" d="M81.47,41.75a7.36,7.36,0,1,1,7.36,7.36A7.36,7.36,0,0,1,81.47,41.75Zm1.15,0a6.21,6.21,0,1,0,6.21-6.21A6.22,6.22,0,0,0,82.62,41.75Z"/><path class="cls-8" d="M82.25,38.29a24.1,24.1,0,0,0-7.72-3.17.68.68,0,0,0-.81.67h0a.68.68,0,0,0,.55.67,23.33,23.33,0,0,1,7.24,3,.62.62,0,0,0,.37.11.67.67,0,0,0,.37-1.24Z"/><path class="cls-8" d="M115.23,38.46A24.32,24.32,0,0,1,123,35.3a.67.67,0,0,1,.8.67h0a.67.67,0,0,1-.54.66,23.24,23.24,0,0,0-7.24,3,.66.66,0,0,1-.37.11.68.68,0,0,1-.57-.31A.67.67,0,0,1,115.23,38.46Z"/><path class="cls-8" d="M95.78,40.1A4.64,4.64,0,0,1,99,38.24a4.2,4.2,0,0,1,3,1.86l1-.63a5.28,5.28,0,0,0-4-2.38c-2.39,0-4,2.24-4.1,2.34Z"/><path class="cls-3" d="M151.15,159.88c-4,11.49-22,10.66-42.47,4.37l-.09,0-.19-.06-2.82-.9-1.16-.39c-2.21-.74-4.43-1.54-6.67-2.38a229.79,229.79,0,0,1-21.64-9.59l0-.12,2.09-5.44L79,143.5s38,4.13,57.05.14l.95-.2a12.24,12.24,0,0,0-.22-1.26c-10.11-34.44.95-41,4.65-45.84C141.4,96.34,158.73,138.18,151.15,159.88Z"/><path class="cls-4" d="M145,149.22a.78.78,0,0,1-.36.08.8.8,0,0,1-.73-.45c-1.44-3-6.35-4.72-7.86-5.21l.95-.2c-.08-.43-.15-.85-.22-1.26,1.92.63,6.93,2.56,8.59,6A.8.8,0,0,1,145,149.22Z"/><path class="cls-4" d="M91.79,147.78c-7.74,0-14-.44-14.58-.48a.82.82,0,0,1-.75-.87.81.81,0,0,1,.86-.75c.29,0,28.77,2,40-2.52a.81.81,0,0,1,.6,1.5C111.71,147.18,100.77,147.78,91.79,147.78Z"/><path class="cls-4" d="M105.58,163.27h0c6.49-1.79,12.4-3.54,15.81-4.63,4.73-1.52,8.65-6.31,10.43-10.37a.81.81,0,0,1,1.07-.42.82.82,0,0,1,.42,1.07c-1.93,4.4-6.21,9.59-11.43,11.26-2.47.8-6.25,1.93-10.62,3.18a9.85,9.85,0,0,1-5.69-.09Z"/><path class="cls-3" d="M123.1,157.7c-58.67,19.76-76.72,6.83-76.72,6.83C42.43,128.81,57,96.69,57,96.69c4.3,7.09,9.16,19.47,9.16,19.47l1.29,27.38-.1.76,0,.36L67,146.53v0l.37.08c17.75,3.75,50.21-.44,50.21-.44Z"/><path class="cls-4" d="M67.41,146.65a57.62,57.62,0,0,0-8.85,9.23.81.81,0,0,1-1.29-1h0a59,59,0,0,1,10-10.24L67,146.53v0Z"/><path class="cls-7" d="M117.62,146.21s6.5-14.75,16.37-13.44l3,10.67c-5.41,2.29-6.2,11.56-13.87,14.26Z"/><path class="cls-7" d="M79,143.5a23.49,23.49,0,0,0-14.9-12.42c-10.79-2.8-17.67,2.29-18.4,4.21s4.08.08,4.08.08a9.35,9.35,0,0,0-4.92,3.82c-1.79,2.94,4.36-.23,4.36-.23s-4.41,1.93-5,3.73,5.26-1.24,6.35-1.18c0,0-5.2,2.06-5.16,3.91s6-1.16,10.4-.92A69.19,69.19,0,0,1,67,146.57a75.08,75.08,0,0,0,10.23,1.35Z"/><path class="cls-8" d="M258.13,226.9c0,.49-.05,1.16-.09,2-.23,4.62-.79,15.1-1.05,35.51H164.9c0-18.75,0-29.29,0-35,0-3,0-4.71,0-5.56,0-.24,0-.49,0-.73,0-1.32,0-2.65,0-4q.06-4.21.14-8.4c.59-33.9,1.79-64.55,4.17-68.06,3-4.44,14.26-10.6,23.59-15.73l.63-.34c.27-.16.55-.31.82-.45l2.51-1.4a80.19,80.19,0,0,0,8-4.86c.54.93,2.83,6.12,7,6.51,4.6.43,8.68-5.37,8.68-5.37V120a100.72,100.72,0,0,0,8.62,5.37l2.45,1.43.67.39,2.8,1.64c7.52,4.4,15.32,9.27,17.93,13.11s4.19,42.38,5,81.16c0,.68,0,1.36,0,2,0,.37,0,.74,0,1.1C258.14,226.37,258.14,226.6,258.13,226.9Z"/><path class="cls-9" d="M172.71,210.41a57.26,57.26,0,0,0-7.76,19c0-3,0-4.71,0-5.56,0-.24,0-.49,0-.73a57.28,57.28,0,0,1,2.21-5.78,59.73,59.73,0,0,1,4.19-7.8.76.76,0,0,1,.5-.33h0A.78.78,0,0,1,172.71,210.41Z"/><path class="cls-9" d="M258.13,226.9c0,.49-.05,1.16-.09,2a57.47,57.47,0,0,0-7.66-18.53.78.78,0,0,1,.82-1.18h0a.77.77,0,0,1,.49.33,60.87,60.87,0,0,1,4.2,7.8,58.37,58.37,0,0,1,2.18,5.71c0,.68,0,1.36,0,2C258.13,225.59,258.13,226.19,258.13,226.9Z"/><path class="cls-8" d="M182.68,145.06s-16-18.7-4.88-31.95,37.69-12,46.42-10.69,34.31,16.56,16,38.14S182.68,145.06,182.68,145.06Z"/><path class="cls-9" d="M185.92,216.71a63.4,63.4,0,0,0,30.77,12.78.84.84,0,0,0,.95-.85v0a.85.85,0,0,0-.72-.81,61.68,61.68,0,0,1-30-12.45.84.84,0,0,0-1.35.65v0A.9.9,0,0,0,185.92,216.71Z"/><path class="cls-9" d="M189.4,206v0a.76.76,0,0,0,.1.39c.43.75.93,1.54,1.49,2.34a33.72,33.72,0,0,0,19.29,13.06.64.64,0,0,0,.2,0,.77.77,0,0,0,.2-1.51c-11.11-3-16.93-9.71-19.84-14.74A.77.77,0,0,0,189.4,206Z"/><path class="cls-9" d="M222.83,140.59a57.28,57.28,0,0,1-17.07,11.6.8.8,0,0,0-.47.71h0a.78.78,0,0,0,1.09.72,56,56,0,0,0,10.81-6.19,59.26,59.26,0,0,0,6.74-5.73.75.75,0,0,0,.23-.55h0A.78.78,0,0,0,222.83,140.59Z"/><path class="cls-10" d="M200.48,212.25a.67.67,0,0,1-.67-.66c-.72-32.56,0-65.54,0-65.87a.67.67,0,0,1,.67-.66h0a.67.67,0,0,1,.66.69c0,.33-.72,33.28,0,65.81a.68.68,0,0,1-.66.69Z"/><path class="cls-11" d="M226.09,212.25h0a.68.68,0,0,1-.66-.69c.72-32.53,0-65.48,0-65.81a.67.67,0,0,1,.66-.69h0a.68.68,0,0,1,.68.66c0,.33.72,33.31,0,65.87A.68.68,0,0,1,226.09,212.25Z"/><path class="cls-1" d="M236.54,79.72c0,14.28-8.79,24.12-23.07,24.12S189.25,93.26,189.25,79s8.45-25.1,22.73-25.1C229.1,53.88,236.54,65.44,236.54,79.72Z"/><path class="cls-1" d="M191.11,89.1A11.06,11.06,0,0,1,184,81.45c-1.8-6.22,2.39-3.06,3.11-8.47s-5.34-9.45,0-12.06,2.13-8.25,6.84-11.18,11.61,2.48,16.11-2,13.65-3.39,16.24,0,3.73,2.56,8.59,3.46S242,60,239.66,63.61s-.72,6.09,1.55,8.35.69,17.74-7.1,15.58S191.11,89.1,191.11,89.1Z"/><path class="cls-5" d="M233.34,85.87s4-5.29,6.91-.92-1.22,17.29-8.44,14.14Z"/><path class="cls-6" d="M233.39,95.1a.61.61,0,0,0,.58-.45c1.12-4,5.25-5.6,5.3-5.62a.61.61,0,1,0-.44-1.14c-.19.07-4.74,1.84-6,6.43a.61.61,0,0,0,.42.75A.51.51,0,0,0,233.39,95.1Z"/><path class="cls-6" d="M237.56,93.09a.6.6,0,0,0,.33-.1.61.61,0,0,0,.18-.84,5.57,5.57,0,0,0-2.29-1.85.61.61,0,0,0-.81.31.61.61,0,0,0,.31.8,4.34,4.34,0,0,1,1.76,1.4A.63.63,0,0,0,237.56,93.09Z"/><path class="cls-5" d="M192.45,85.87s-4-5.29-6.91-.92,1.22,17.29,8.44,14.14Z"/><path class="cls-6" d="M192.4,95.1a.61.61,0,0,1-.58-.45c-1.12-4-5.26-5.6-5.3-5.62a.61.61,0,0,1,.44-1.14c.19.07,4.74,1.84,6,6.43a.61.61,0,0,1-.42.75A.51.51,0,0,1,192.4,95.1Z"/><path class="cls-6" d="M188.23,93.09a.58.58,0,0,1-.33-.1.61.61,0,0,1-.18-.84A5.57,5.57,0,0,1,190,90.3a.61.61,0,0,1,.81.31.61.61,0,0,1-.31.8,4.34,4.34,0,0,0-1.76,1.4A.63.63,0,0,1,188.23,93.09Z"/><path class="cls-7" d="M203.13,110.05v12.84s3.83,6.54,9,7,9.78-5.63,9.78-5.63V111Z"/><path class="cls-5" d="M203.13,110.05v5.7c3.48,3.85,9.65,4.82,18.79,3.47V111Z"/><path class="cls-7" d="M235.46,85.46a78.43,78.43,0,0,1-1.05,8.46c-1.72,9.47-5.6,18.78-14,21.77-18.93,6.76-25.69-9.48-28.4-18.94-.29-1-.56-2.22-.8-3.47-.43-2.26-.76-4.77-1-7.31-.31-3.07-.52-6.18-.64-8.91a13.36,13.36,0,0,1,8.56-13.12c7.76-3,19.55-5.35,30.72,1a13.39,13.39,0,0,1,6.81,11.41C235.73,78.92,235.69,82.06,235.46,85.46Z"/><path class="cls-1" d="M221,87.54c0,1.37.71,2.49,1.58,2.49s1.58-1.12,1.58-2.49-.71-2.48-1.58-2.48S221,86.17,221,87.54Z"/><path class="cls-1" d="M202.41,87.49c0,1.37.7,2.48,1.57,2.48s1.58-1.11,1.58-2.48S204.86,85,204,85,202.41,86.12,202.41,87.49Z"/><path class="cls-1" d="M228.85,80.53s-6-2.39-10.7-.38l.46,2.59s6.84-.58,10.28.82A4.51,4.51,0,0,0,228.85,80.53Z"/><path class="cls-1" d="M198.77,80.53s6-2.39,10.71-.38L209,82.74s-6.83-.58-10.28.82A4.57,4.57,0,0,1,198.77,80.53Z"/><path class="cls-5" d="M212.68,97.15a6.69,6.69,0,0,1-2.21-.46.61.61,0,0,1-.33-.8.6.6,0,0,1,.79-.33,3.72,3.72,0,0,0,2.45.23.68.68,0,0,0,.3-.57,91.44,91.44,0,0,0-.37-9.35.61.61,0,0,1,1.22-.1,92.14,92.14,0,0,1,.37,9.58,1.88,1.88,0,0,1-.89,1.49A2.61,2.61,0,0,1,212.68,97.15Z"/><path class="cls-8" d="M221,101.63c-.5,2.51-2.15,7.12-7.74,7.12s-7.17-4.22-7.71-7.12Z"/><path class="cls-1" d="M190.23,86H193c-.31-2.77-.75-7.66,1.53-8.36,7.21-2.22-2.13-7.31,1.12-9.85s11.35-1.45,17-1.64,14.78-.1,17,.41,1,4.19.19,7,2.72,6,3.31,8.94a12.77,12.77,0,0,1,0,3.46h2.31c.27-3.58.31-6.92.26-9.63a13.4,13.4,0,0,0-6.8-11.41c-11.18-6.34-23-4-30.73-1a13.36,13.36,0,0,0-8.56,13.11C189.72,79.79,189.92,82.9,190.23,86Z"/><path class="cls-8" d="M266.5,264.45c-3.17-13.64-6.2-27.23-6.23-33.64l-1.77-6L252,203l-10.12-34.2s1.65-22.46,11.16-26.9c0,0,10.53,21.27,16.32,41.6,1,3.45,2,7,3,10.48,4.11,14.74,8,29.3,9.79,37.93s3,20.77,3.72,32.53Z"/><path class="cls-8" d="M156.42,264.45c3.18-13.64,6.21-27.23,6.24-33.64l1.77-6L170.89,203,181,168.81s-2.15-21.66-11.66-26.09c0,0-10,20.46-15.82,40.79-1,3.45-2,7-2.95,10.48-4.12,14.74-8,29.3-9.79,37.93s-3,20.77-3.72,32.53Z"/><rect class="cls-9" y="268.87" width="426.01" height="16.57" rx="7.91"/><path class="cls-12" d="M426,276.77v.38H0v-.38a7.91,7.91,0,0,1,7.91-7.9h410.2A7.9,7.9,0,0,1,426,276.77Z"/><rect class="cls-2" x="141.24" y="163.07" width="143.53" height="80.54" rx="7.91"/><rect class="cls-1" x="141.24" y="167.42" width="143.53" height="76.19" rx="7.91"/><rect class="cls-2" x="201.89" y="243.53" width="22.23" height="25.34"/><path class="cls-12" d="M223.79,204.33a11,11,0,1,1-11-11A11,11,0,0,1,223.79,204.33Z"/><path class="cls-1" d="M190.09,259.88h45.12a6.11,6.11,0,0,1,6.11,6.11v2.88a0,0,0,0,1,0,0H184a0,0,0,0,1,0,0V266A6.11,6.11,0,0,1,190.09,259.88Z"/></g></g></svg>