<svg xmlns:xlink="http://www.w3.org/1999/xlink" width="1234.715" xmlns="http://www.w3.org/2000/svg" height="895.499" id="screenshot-c90a66dc-5088-80ec-8001-ceb2fd160192" viewBox="0 0 1234.715 895.499" style="-webkit-print-color-adjust: exact;" fill="none" version="1.1"><g id="shape-c90a66dc-5088-80ec-8001-ceb2fd160192" rx="0" ry="0"><g id="shape-7280b5a0-4898-11ed-9794-eb837460cbb5"><defs><linearGradient id="fill-color-gradient_c19819de-8899-80e7-8001-ceb30fc2ef20_0" x1="0.5" y1="0" x2="0.5" y2="1" gradientTransform=""><stop offset="0" stop-color="#d4defa" stop-opacity="1"/><stop offset="1" stop-color="#bdcdff" stop-opacity="0"/></linearGradient><pattern patternUnits="userSpaceOnUse" x="1010.0000000044968" y="399.0000000044022" height="160.99999999251372" width="158.9999999923166" data-loading="false" id="fill-0-c19819de-8899-80e7-8001-ceb30fc2ef20"><g><rect width="158.9999999923166" height="160.99999999251372" style="fill: url(&quot;#fill-color-gradient_c19819de-8899-80e7-8001-ceb30fc2ef20_0&quot;);"/></g></pattern></defs><g id="fills-7280b5a0-4898-11ed-9794-eb837460cbb5"><ellipse rx="79.4999999961583" ry="80.49999999625686" cx="1089.500000000655" cy="479.50000000065904" transform="matrix(1,0,0,1,0.000002,-0.000005)" fill="url(#fill-0-c19819de-8899-80e7-8001-ceb30fc2ef20)"/></g></g><g id="shape-c90a66dc-5088-80ec-8001-ceb2bb8ff492" rx="0" ry="0"><g id="shape-61bb7f20-4898-11ed-9794-eb837460cbb5"><defs><linearGradient id="fill-color-gradient_c19819de-8899-80e7-8001-ceb30fc591d3_0" x1="0.5" y1="0" x2="0.5" y2="1" gradientTransform=""><stop offset="0" stop-color="#d4defa" stop-opacity="1"/><stop offset="1" stop-color="#bdcdff" stop-opacity="0"/></linearGradient><pattern patternUnits="userSpaceOnUse" x="582.0000000044402" y="3.0000000043474415" height="158.999999991305" width="156.9999999911197" data-loading="false" id="fill-0-c19819de-8899-80e7-8001-ceb30fc591d3"><g><rect width="156.9999999911197" height="158.999999991305" style="fill: url(&quot;#fill-color-gradient_c19819de-8899-80e7-8001-ceb30fc591d3_0&quot;);"/></g></pattern></defs><g id="fills-61bb7f20-4898-11ed-9794-eb837460cbb5"><ellipse rx="78.49999999555985" ry="79.4999999956525" cx="660.5" cy="82.49999999999994" transform="matrix(1,0,0,1,0,-0.000003)" fill="url(#fill-0-c19819de-8899-80e7-8001-ceb30fc591d3)"/></g></g><g id="shape-92a97e80-4892-11ed-b107-8bd004d4c01f" width="786.81995" height="572.25773" xmlns:xlink="http://www.w3.org/1999/xlink" rx="0" ry="0" style="fill: rgb(0, 0, 0);"><g id="shape-92aa68e0-4892-11ed-b107-8bd004d4c01f"><g id="fills-92aa68e0-4892-11ed-b107-8bd004d4c01f"><ellipse rx="39.958860466721944" ry="39.9588604667216" cx="704.0108470756315" cy="40.48536367722386" transform="matrix(0.999999,-0.00103,0.00103,0.999999,-0.04133,0.725207)" style="fill: rgb(68, 103, 192); fill-opacity: 1;"/></g></g><g id="shape-92acb2d0-4892-11ed-b107-8bd004d4c01f"><g id="fills-92acb2d0-4892-11ed-b107-8bd004d4c01f"><path rx="0" ry="0" d="M0.702,682.431C14.134,698.314,28.661,713.238,44.175,727.095L1172.442,727.477C1187.928,713.588,1202.423,698.634,1215.823,682.723Z" style="fill: rgb(63, 61, 86);"/></g></g><g id="shape-92ad00f0-4892-11ed-b107-8bd004d4c01f"><g id="fills-92ad00f0-4892-11ed-b107-8bd004d4c01f"><path rx="0" ry="0" d="M765.668,538.483L765.804,670.839C765.81,674.351,768.66,677.195,772.172,677.194L968.31,676.992C971.822,676.986,974.666,674.136,974.665,670.624L974.529,538.268C974.517,534.759,971.669,531.921,968.161,531.92L772.022,532.122C768.514,532.13,765.672,534.974,765.668,538.483ZZ" style="fill: rgb(63, 61, 86);"/></g></g><g id="shape-92ad4f10-4892-11ed-b107-8bd004d4c01f"><g id="fills-92ad4f10-4892-11ed-b107-8bd004d4c01f"><path rx="0" ry="0" d="M770.271,540.125L770.404,669.202C770.409,671.078,771.931,672.597,773.807,672.598L966.673,672.399C968.549,672.394,970.068,670.872,970.069,668.996L969.936,539.919C969.934,538.041,968.412,536.518,966.533,536.516L773.667,536.715C771.788,536.721,770.269,538.246,770.271,540.125ZZ" style="fill: rgb(108, 99, 255);"/></g></g><g id="shape-92adc440-4892-11ed-b107-8bd004d4c01f"><g id="fills-92adc440-4892-11ed-b107-8bd004d4c01f"><path rx="0" ry="0" d="M761.729,696.656C762.458,697.568,763.564,698.096,764.731,698.089L974.75,697.873C975.913,697.87,977.013,697.344,977.745,696.44C978.476,695.536,978.762,694.35,978.522,693.212L975.246,677.73C974.97,676.447,974.064,675.391,972.837,674.925C972.4,674.754,971.935,674.667,971.466,674.668L767.955,674.877C767.485,674.877,767.02,674.965,766.584,675.137C765.358,675.606,764.453,676.664,764.18,677.947L760.936,693.436C760.702,694.574,760.993,695.757,761.729,696.656ZZ" style="fill: rgb(47, 46, 65);"/></g></g><g id="shape-92adeb50-4892-11ed-b107-8bd004d4c01f"><g id="fills-92adeb50-4892-11ed-b107-8bd004d4c01f"><rect rx="0.48819" ry="0.48819" x="963.5103263341887" y="677.46131300716" transform="matrix(-0.999999,0.00103,-0.00103,-0.999999,1934.188443,1357.807517)" width="6.4684666434809515" height="3.8810738087154277" style="fill: rgb(63, 61, 86);"/></g></g><g id="shape-92ae1260-4892-11ed-b107-8bd004d4c01f"><g id="fills-92ae1260-4892-11ed-b107-8bd004d4c01f"><rect rx="0.48819" ry="0.48819" x="950.5733999106626" y="677.4746390541559" transform="matrix(-0.999999,0.00103,-0.00103,-0.999999,1908.314601,1357.84751)" width="6.46846664348027" height="3.8810738087153145" style="fill: rgb(63, 61, 86);"/></g></g><g id="shape-92ae6080-4892-11ed-b107-8bd004d4c01f"><g id="fills-92ae6080-4892-11ed-b107-8bd004d4c01f"><rect rx="0.48819" ry="0.48819" x="937.6364734871363" y="677.487965101152" transform="matrix(-0.999999,0.00103,-0.00103,-0.999999,1882.440779,1357.887474)" width="6.468466643479815" height="3.8810738087148593" style="fill: rgb(63, 61, 86);"/></g></g><g id="shape-92ae8790-4892-11ed-b107-8bd004d4c01f"><g id="fills-92ae8790-4892-11ed-b107-8bd004d4c01f"><rect rx="0.48819" ry="0.48819" x="924.6995470636093" y="677.5012911481484" transform="matrix(-0.999999,0.00103,-0.00103,-0.999999,1856.566946,1357.927452)" width="6.468466643480269" height="3.8810738087133814" style="fill: rgb(63, 61, 86);"/></g></g><g id="shape-92aeaea0-4892-11ed-b107-8bd004d4c01f"><g id="fills-92aeaea0-4892-11ed-b107-8bd004d4c01f"><rect rx="0.48819" ry="0.48819" x="911.7626051966581" y="677.5146172110518" transform="matrix(-0.999999,0.00103,-0.00103,-0.999999,1830.693083,1357.96743)" width="6.468466643480042" height="3.8810738087140635" style="fill: rgb(63, 61, 86);"/></g></g><g id="shape-92aefcc0-4892-11ed-b107-8bd004d4c01f"><g id="fills-92aefcc0-4892-11ed-b107-8bd004d4c01f"><rect rx="0.48819" ry="0.48819" x="898.8256787731316" y="677.5279432580481" transform="matrix(-0.999999,0.00103,-0.00103,-0.999999,1804.819241,1358.007421)" width="6.468466643480269" height="3.881073808713154" style="fill: rgb(63, 61, 86);"/></g></g><g id="shape-92af23d0-4892-11ed-b107-8bd004d4c01f"><g id="fills-92af23d0-4892-11ed-b107-8bd004d4c01f"><rect rx="0.48819" ry="0.48819" x="885.888752349605" y="677.5412693050434" transform="matrix(-0.999999,0.00103,-0.00103,-0.999999,1778.945419,1358.047386)" width="6.468466643480725" height="3.881073808713723" style="fill: rgb(63, 61, 86);"/></g></g><g id="shape-92af4ae0-4892-11ed-b107-8bd004d4c01f"><g id="fills-92af4ae0-4892-11ed-b107-8bd004d4c01f"><rect rx="0.48819" ry="0.48819" x="872.951825926079" y="677.554595352039" transform="matrix(-0.999999,0.00103,-0.00103,-0.999999,1753.071586,1358.087364)" width="6.468466643479815" height="3.8810738087147456" style="fill: rgb(63, 61, 86);"/></g></g><g id="shape-92af9900-4892-11ed-b107-8bd004d4c01f"><g id="fills-92af9900-4892-11ed-b107-8bd004d4c01f"><rect rx="0.48819" ry="0.48819" x="860.0148995025527" y="677.5679213990345" transform="matrix(-0.999999,0.00103,-0.00103,-0.999999,1727.197754,1358.127342)" width="6.4684666434809515" height="3.881073808715314" style="fill: rgb(63, 61, 86);"/></g></g><g id="shape-92afc010-4892-11ed-b107-8bd004d4c01f"><g id="fills-92afc010-4892-11ed-b107-8bd004d4c01f"><rect rx="0.48819" ry="0.48819" x="847.0779730790264" y="677.5812474460307" transform="matrix(-0.999999,0.00103,-0.00103,-0.999999,1701.323912,1358.167333)" width="6.468466643480269" height="3.881073808714291" style="fill: rgb(63, 61, 86);"/></g></g><g id="shape-92b00e30-4892-11ed-b107-8bd004d4c01f"><g id="fills-92b00e30-4892-11ed-b107-8bd004d4c01f"><rect rx="0.48819" ry="0.48819" x="834.1410312120747" y="677.594573508935" transform="matrix(-0.999999,0.00103,-0.00103,-0.999999,1675.450059,1358.207299)" width="6.4684666434798155" height="3.881073808713268" style="fill: rgb(63, 61, 86);"/></g></g><g id="shape-92b03540-4892-11ed-b107-8bd004d4c01f"><g id="fills-92b03540-4892-11ed-b107-8bd004d4c01f"><rect rx="0.48819" ry="0.48819" x="821.2041047885482" y="677.6078995559293" transform="matrix(-0.999999,0.00103,-0.00103,-0.999999,1649.576227,1358.247277)" width="6.468466643480724" height="3.8810738087165646" style="fill: rgb(63, 61, 86);"/></g></g><g id="shape-92b08360-4892-11ed-b107-8bd004d4c01f"><g id="fills-92b08360-4892-11ed-b107-8bd004d4c01f"><rect rx="0.48819" ry="0.48819" x="808.2671629215968" y="677.6212256188342" transform="matrix(-0.999999,0.00103,-0.00103,-0.999999,1623.702363,1358.287255)" width="6.46846664348027" height="3.881073808714405" style="fill: rgb(63, 61, 86);"/></g></g><g id="shape-92b0aa70-4892-11ed-b107-8bd004d4c01f"><g id="fills-92b0aa70-4892-11ed-b107-8bd004d4c01f"><rect rx="0.48819" ry="0.48819" x="795.3302519414956" y="677.6345516499221" transform="matrix(-0.999999,0.00103,-0.00103,-0.999999,1597.828562,1358.327233)" width="6.468466643480269" height="3.88107380871395" style="fill: rgb(63, 61, 86);"/></g></g><g id="shape-92b0d180-4892-11ed-b107-8bd004d4c01f"><g id="fills-92b0d180-4892-11ed-b107-8bd004d4c01f"><rect rx="0.48819" ry="0.48819" x="782.3933255179691" y="677.6478776969177" transform="matrix(-0.999999,0.00103,-0.00103,-0.999999,1571.95473,1358.367211)" width="6.468466643479815" height="3.8810738087144045" style="fill: rgb(63, 61, 86);"/></g></g><g id="shape-92b0f890-4892-11ed-b107-8bd004d4c01f"><g id="fills-92b0f890-4892-11ed-b107-8bd004d4c01f"><rect rx="0.48819" ry="0.48819" x="769.456383651017" y="677.6612037598219" transform="matrix(-0.999999,0.00103,-0.00103,-0.999999,1546.080867,1358.407189)" width="6.468466643479815" height="3.8810738087133814" style="fill: rgb(63, 61, 86);"/></g></g><g id="shape-92b11fa0-4892-11ed-b107-8bd004d4c01f"><g id="fills-92b11fa0-4892-11ed-b107-8bd004d4c01f"><rect rx="0.48819" ry="0.48819" x="963.6698638239818" y="683.9296187462555" transform="matrix(-0.999999,0.00103,-0.00103,-0.999999,1934.514181,1370.743961)" width="6.468466643479815" height="3.8810738087145182" style="fill: rgb(63, 61, 86);"/></g></g><g id="shape-92b146b0-4892-11ed-b107-8bd004d4c01f"><g id="fills-92b146b0-4892-11ed-b107-8bd004d4c01f"><rect rx="0.48819" ry="0.48819" x="950.7329374004553" y="683.9429447932512" transform="matrix(-0.999999,0.00103,-0.00103,-0.999999,1908.640349,1370.783939)" width="6.468466643480269" height="3.881073808714632" style="fill: rgb(63, 61, 86);"/></g></g><g id="shape-92b16dc0-4892-11ed-b107-8bd004d4c01f"><g id="fills-92b16dc0-4892-11ed-b107-8bd004d4c01f"><rect rx="0.48819" ry="0.48819" x="937.7959955335036" y="683.9562708561548" transform="matrix(-0.999999,0.00103,-0.00103,-0.999999,1882.766485,1370.823917)" width="6.468466643480724" height="3.8810738087148593" style="fill: rgb(63, 61, 86);"/></g></g><g id="shape-92b1bbe0-4892-11ed-b107-8bd004d4c01f"><g id="fills-92b1bbe0-4892-11ed-b107-8bd004d4c01f"><rect rx="0.48819" ry="0.48819" x="924.8590691099771" y="683.96959690315" transform="matrix(-0.999999,0.00103,-0.00103,-0.999999,1856.892653,1370.863895)" width="6.468466643480497" height="3.8810738087166783" style="fill: rgb(63, 61, 86);"/></g></g><g id="shape-92b1bbe1-4892-11ed-b107-8bd004d4c01f"><g id="fills-92b1bbe1-4892-11ed-b107-8bd004d4c01f"><rect rx="0.48819" ry="0.48819" x="911.9221426864506" y="683.982922950147" transform="matrix(-0.999999,0.00103,-0.00103,-0.999999,1831.018821,1370.903874)" width="6.468466643480269" height="3.881073808714177" style="fill: rgb(63, 61, 86);"/></g></g><g id="shape-92b1e2f0-4892-11ed-b107-8bd004d4c01f"><g id="fills-92b1e2f0-4892-11ed-b107-8bd004d4c01f"><rect rx="0.48819" ry="0.48819" x="898.985216262925" y="683.9962489971426" transform="matrix(-0.999999,0.00103,-0.00103,-0.999999,1805.144979,1370.943865)" width="6.468466643479815" height="3.881073808714291" style="fill: rgb(63, 61, 86);"/></g></g><g id="shape-92b20a00-4892-11ed-b107-8bd004d4c01f"><g id="fills-92b20a00-4892-11ed-b107-8bd004d4c01f"><rect rx="0.48819" ry="0.48819" x="886.0482898393982" y="684.009575044138" transform="matrix(-0.999999,0.00103,-0.00103,-0.999999,1779.271156,1370.98383)" width="6.468466643480042" height="3.881073808714632" style="fill: rgb(63, 61, 86);"/></g></g><g id="shape-92b23110-4892-11ed-b107-8bd004d4c01f"><g id="fills-92b23110-4892-11ed-b107-8bd004d4c01f"><rect rx="0.48819" ry="0.48819" x="873.1113634158719" y="684.0229010911339" transform="matrix(-0.999999,0.00103,-0.00103,-0.999999,1753.397324,1371.023808)" width="6.468466643479815" height="3.881073808714632" style="fill: rgb(63, 61, 86);"/></g></g><g id="shape-92b27f30-4892-11ed-b107-8bd004d4c01f"><g id="fills-92b27f30-4892-11ed-b107-8bd004d4c01f"><rect rx="0.48819" ry="0.48819" x="860.1744215489202" y="684.0362271540373" transform="matrix(-0.999999,0.00103,-0.00103,-0.999999,1727.523461,1371.063786)" width="6.468466643480724" height="3.8810738087155414" style="fill: rgb(63, 61, 86);"/></g></g><g id="shape-92b2a640-4892-11ed-b107-8bd004d4c01f"><g id="fills-92b2a640-4892-11ed-b107-8bd004d4c01f"><rect rx="0.48819" ry="0.48819" x="847.2374951253937" y="684.0495532010327" transform="matrix(-0.999999,0.00103,-0.00103,-0.999999,1701.649629,1371.103764)" width="6.468466643479815" height="3.8810738087166783" style="fill: rgb(63, 61, 86);"/></g></g><g id="shape-92b2a641-4892-11ed-b107-8bd004d4c01f"><g id="fills-92b2a641-4892-11ed-b107-8bd004d4c01f"><rect rx="0.48819" ry="0.48819" x="834.3005687018681" y="684.06287924803" transform="matrix(-0.999999,0.00103,-0.00103,-0.999999,1675.775797,1371.143742)" width="6.468466643479815" height="3.8810738087132677" style="fill: rgb(63, 61, 86);"/></g></g><g id="shape-92b2cd50-4892-11ed-b107-8bd004d4c01f"><g id="fills-92b2cd50-4892-11ed-b107-8bd004d4c01f"><rect rx="0.48819" ry="0.48819" x="821.3636422783411" y="684.0762052950247" transform="matrix(-0.999999,0.00103,-0.00103,-0.999999,1649.90196,1371.183726)" width="6.46846664348027" height="3.8810738087153145" style="fill: rgb(63, 61, 86);"/></g></g><g id="shape-92b31b70-4892-11ed-b107-8bd004d4c01f"><g id="fills-92b31b70-4892-11ed-b107-8bd004d4c01f"><rect rx="0.48819" ry="0.48819" x="808.4267158548146" y="684.0895313420217" transform="matrix(-0.999999,0.00103,-0.00103,-0.999999,1624.028132,1371.223699)" width="6.468466643480724" height="3.8810738087133814" style="fill: rgb(63, 61, 86);"/></g></g><g id="shape-92b34280-4892-11ed-b107-8bd004d4c01f"><g id="fills-92b34280-4892-11ed-b107-8bd004d4c01f"><rect rx="0.48819" ry="0.48819" x="795.4897739878634" y="684.1028574049242" transform="matrix(-0.999999,0.00103,-0.00103,-0.999999,1598.154269,1371.263677)" width="6.468466643480269" height="3.8810738087158825" style="fill: rgb(63, 61, 86);"/></g></g><g id="shape-92b36990-4892-11ed-b107-8bd004d4c01f"><g id="fills-92b36990-4892-11ed-b107-8bd004d4c01f"><rect rx="0.48819" ry="0.48819" x="782.5528475643368" y="684.1161834519208" transform="matrix(-0.999999,0.00103,-0.00103,-0.999999,1572.280437,1371.303655)" width="6.468466643479815" height="3.881073808713836" style="fill: rgb(63, 61, 86);"/></g></g><g id="shape-92b390a0-4892-11ed-b107-8bd004d4c01f"><g id="fills-92b390a0-4892-11ed-b107-8bd004d4c01f"><rect rx="0.48819" ry="0.48819" x="769.6159211408103" y="684.1295094989164" transform="matrix(-0.999999,0.00103,-0.00103,-0.999999,1546.406604,1371.343633)" width="6.468466643480269" height="3.8810738087144045" style="fill: rgb(63, 61, 86);"/></g></g><g id="shape-92b3b7b0-4892-11ed-b107-8bd004d4c01f"><g id="fills-92b3b7b0-4892-11ed-b107-8bd004d4c01f"><rect rx="0.48819" ry="0.48819" x="856.301333419598" y="691.7790633143782" transform="matrix(-0.999999,0.00103,-0.00103,-0.999999,1765.064533,1386.530123)" width="51.747748591274785" height="3.8810738087137224" style="fill: rgb(63, 61, 86);"/></g></g><g id="shape-92b3dec0-4892-11ed-b107-8bd004d4c01f"><g id="fills-92b3dec0-4892-11ed-b107-8bd004d4c01f"><rect rx="1.56108" ry="1.56108" x="796.8949765007001" y="564.9249343293211" transform="matrix(0.999999,-0.00103,0.00103,0.999999,-0.583975,0.82591)" width="9.213320725370068" height="4.821687007873493" style="fill: rgb(255, 255, 255);"/></g></g><g id="shape-92b405d0-4892-11ed-b107-8bd004d4c01f"><g id="fills-92b405d0-4892-11ed-b107-8bd004d4c01f"><rect rx="1.56108" ry="1.56108" x="847.121643801041" y="564.87319692996" transform="matrix(0.999999,-0.00103,0.00103,0.999999,-0.583895,0.877647)" width="9.213320725370522" height="4.82168700787247" style="fill: rgb(255, 255, 255);"/></g></g><g id="shape-92b42ce0-4892-11ed-b107-8bd004d4c01f"><g id="fills-92b42ce0-4892-11ed-b107-8bd004d4c01f"><rect rx="1.56108" ry="1.56108" x="861.3525284938337" y="564.8585380046477" transform="matrix(0.999999,-0.00103,0.00103,0.999999,-0.583869,0.892301)" width="9.213320725370295" height="4.821687007873038" style="fill: rgb(255, 255, 255);"/></g></g><g id="shape-92b453f0-4892-11ed-b107-8bd004d4c01f"><g id="fills-92b453f0-4892-11ed-b107-8bd004d4c01f"><rect rx="1.56108" ry="1.56108" x="810.5563663061491" y="564.4971196092829" transform="matrix(0.999999,-0.00103,0.00103,0.999999,-0.583521,0.851778)" width="32.11636489963621" height="4.821687007872356" style="fill: rgb(255, 255, 255);"/></g></g><g id="shape-92b47b00-4892-11ed-b107-8bd004d4c01f"><g id="fills-92b47b00-4892-11ed-b107-8bd004d4c01f"><rect rx="1.56108" ry="1.56108" x="877.5252663355536" y="564.4281363995281" transform="matrix(0.999999,-0.00103,0.00103,0.999999,-0.583414,0.920761)" width="32.116364899636444" height="4.821687007873266" style="fill: rgb(255, 255, 255);"/></g></g><g id="shape-92b4a210-4892-11ed-b107-8bd004d4c01f"><g id="fills-92b4a210-4892-11ed-b107-8bd004d4c01f"><rect rx="1.56108" ry="1.56108" x="810.2999601115334" y="575.7935943728244" transform="matrix(0.999999,-0.00103,0.00103,0.999999,-0.595163,0.839724)" width="9.213320725370522" height="4.821687007872811" style="fill: rgb(255, 255, 255);"/></g></g><g id="shape-92b4c920-4892-11ed-b107-8bd004d4c01f"><g id="fills-92b4c920-4892-11ed-b107-8bd004d4c01f"><rect rx="1.56108" ry="1.56108" x="860.5266274118749" y="575.7418569734616" transform="matrix(0.999999,-0.00103,0.00103,0.999999,-0.595083,0.891461)" width="9.213320725370295" height="4.821687007874743" style="fill: rgb(255, 255, 255);"/></g></g><g id="shape-92b4f030-4892-11ed-b107-8bd004d4c01f"><g id="fills-92b4f030-4892-11ed-b107-8bd004d4c01f"><rect rx="1.56108" ry="1.56108" x="874.7575121046673" y="575.7271980481503" transform="matrix(0.999999,-0.00103,0.00103,0.999999,-0.595061,0.90612)" width="9.213320725370751" height="4.821687007873493" style="fill: rgb(255, 255, 255);"/></g></g><g id="shape-92b4f031-4892-11ed-b107-8bd004d4c01f"><g id="fills-92b4f031-4892-11ed-b107-8bd004d4c01f"><rect rx="1.56108" ry="1.56108" x="823.9613653444997" y="575.3657641934514" transform="matrix(0.999999,-0.00103,0.00103,0.999999,-0.594709,0.865592)" width="32.11636489963599" height="4.821687007874062" style="fill: rgb(255, 255, 255);"/></g></g><g id="shape-92b51740-4892-11ed-b107-8bd004d4c01f"><g id="fills-92b51740-4892-11ed-b107-8bd004d4c01f"><rect rx="1.56108" ry="1.56108" x="890.9302499304799" y="575.2967809996046" transform="matrix(0.999999,-0.00103,0.00103,0.999999,-0.594603,0.934575)" width="32.11636489963621" height="4.821687007875084" style="fill: rgb(255, 255, 255);"/></g></g><g id="shape-92b53e50-4892-11ed-b107-8bd004d4c01f"><g id="fills-92b53e50-4892-11ed-b107-8bd004d4c01f"><rect rx="1.56108" ry="1.56108" x="823.7049437064593" y="586.6622389729008" transform="matrix(0.999999,-0.00103,0.00103,0.999999,-0.606352,0.853538)" width="9.213320725370522" height="4.821687007874743" style="fill: rgb(255, 255, 255);"/></g></g><g id="shape-92b56560-4892-11ed-b107-8bd004d4c01f"><g id="fills-92b56560-4892-11ed-b107-8bd004d4c01f"><rect rx="1.56108" ry="1.56108" x="873.9316110068007" y="586.6105015735393" transform="matrix(0.999999,-0.00103,0.00103,0.999999,-0.60628,0.905288)" width="9.213320725370295" height="4.821687007874516" style="fill: rgb(255, 255, 255);"/></g></g><g id="shape-92b58c70-4892-11ed-b107-8bd004d4c01f"><g id="fills-92b58c70-4892-11ed-b107-8bd004d4c01f"><rect rx="1.56108" ry="1.56108" x="888.1625111430185" y="586.5958426323203" transform="matrix(0.999999,-0.00103,0.00103,0.999999,-0.606249,0.919934)" width="9.213320725370522" height="4.821687007872924" style="fill: rgb(255, 255, 255);"/></g></g><g id="shape-92b58c71-4892-11ed-b107-8bd004d4c01f"><g id="fills-92b58c71-4892-11ed-b107-8bd004d4c01f"><rect rx="1.56108" ry="1.56108" x="837.3663489553333" y="586.2344242369538" transform="matrix(0.999999,-0.00103,0.00103,0.999999,-0.605898,0.879406)" width="32.116364899636665" height="4.821687007874402" style="fill: rgb(255, 255, 255);"/></g></g><g id="shape-92b5b380-4892-11ed-b107-8bd004d4c01f"><g id="fills-92b5b380-4892-11ed-b107-8bd004d4c01f"><rect rx="1.56108" ry="1.56108" x="904.3352335413135" y="586.1654410431084" transform="matrix(0.999999,-0.00103,0.00103,0.999999,-0.605791,0.948389)" width="32.11636489963621" height="4.821687007872697" style="fill: rgb(255, 255, 255);"/></g></g><g id="shape-92b5da90-4892-11ed-b107-8bd004d4c01f"><g id="fills-92b5da90-4892-11ed-b107-8bd004d4c01f"><rect rx="1.56108" ry="1.56108" x="837.1099427448103" y="597.5308835570708" transform="matrix(0.999999,-0.00103,0.00103,0.999999,-0.617531,0.867339)" width="9.21332072537075" height="4.821687007873834" style="fill: rgb(255, 255, 255);"/></g></g><g id="shape-92b601a0-4892-11ed-b107-8bd004d4c01f"><g id="fills-92b601a0-4892-11ed-b107-8bd004d4c01f"><rect rx="1.56108" ry="1.56108" x="887.3366100451515" y="597.4791461577095" transform="matrix(0.999999,-0.00103,0.00103,0.999999,-0.617451,0.919076)" width="9.213320725370522" height="4.821687007873265" style="fill: rgb(255, 255, 255);"/></g></g><g id="shape-92b628b0-4892-11ed-b107-8bd004d4c01f"><g id="fills-92b628b0-4892-11ed-b107-8bd004d4c01f"><rect rx="1.56108" ry="1.56108" x="901.5674947379443" y="597.4644872323975" transform="matrix(0.999999,-0.00103,0.00103,0.999999,-0.617429,0.933735)" width="9.213320725370524" height="4.821687007873152" style="fill: rgb(255, 255, 255);"/></g></g><g id="shape-92b628b1-4892-11ed-b107-8bd004d4c01f"><g id="fills-92b628b1-4892-11ed-b107-8bd004d4c01f"><rect rx="1.56108" ry="1.56108" x="850.77133255026" y="597.1030688370324" transform="matrix(0.999999,-0.00103,0.00103,0.999999,-0.617073,0.893202)" width="32.11636489963598" height="4.821687007872356" style="fill: rgb(255, 255, 255);"/></g></g><g id="shape-92b64fc0-4892-11ed-b107-8bd004d4c01f"><g id="fills-92b64fc0-4892-11ed-b107-8bd004d4c01f"><rect rx="1.56108" ry="1.56108" x="847.1998479192048" y="640.7937548432146" transform="matrix(0.999999,-0.00103,0.00103,0.999999,-0.662099,0.877768)" width="9.213320725370068" height="4.821687007874289" style="fill: rgb(255, 255, 255);"/></g></g><g id="shape-92b676d0-4892-11ed-b107-8bd004d4c01f"><g id="fills-92b676d0-4892-11ed-b107-8bd004d4c01f"><rect rx="1.56108" ry="1.56108" x="861.4307326119974" y="640.7790959179034" transform="matrix(0.999999,-0.00103,0.00103,0.999999,-0.662076,0.892427)" width="9.213320725370977" height="4.821687007872924" style="fill: rgb(255, 255, 255);"/></g></g><g id="shape-92b69de0-4892-11ed-b107-8bd004d4c01f"><g id="fills-92b69de0-4892-11ed-b107-8bd004d4c01f"><rect rx="1.56108" ry="1.56108" x="877.6042985413776" y="641.152601812832" transform="matrix(0.999999,-0.00103,0.00103,0.999999,-0.662441,0.920875)" width="32.11636489963621" height="4.821687007875312" style="fill: rgb(255, 255, 255);"/></g></g><g id="shape-92b6c4f0-4892-11ed-b107-8bd004d4c01f"><g id="fills-92b6c4f0-4892-11ed-b107-8bd004d4c01f"><rect rx="1.56108" ry="1.56108" x="796.9731806188634" y="640.8454922425772" transform="matrix(0.999999,-0.00103,0.00103,0.999999,-0.662179,0.826031)" width="9.213320725370295" height="4.821687007872583" style="fill: rgb(255, 255, 255);"/></g></g><g id="shape-92b6ec00-4892-11ed-b107-8bd004d4c01f"><g id="fills-92b6ec00-4892-11ed-b107-8bd004d4c01f"><rect rx="1.56108" ry="1.56108" x="810.6353985119722" y="641.2215850225863" transform="matrix(0.999999,-0.00103,0.00103,0.999999,-0.662566,0.851918)" width="32.11636489963621" height="4.8216870078754255" style="fill: rgb(255, 255, 255);"/></g></g><g id="shape-92b6ec01-4892-11ed-b107-8bd004d4c01f"><g id="fills-92b6ec01-4892-11ed-b107-8bd004d4c01f"><rect rx="1.56108" ry="1.56108" x="810.3557446809596" y="629.9492543713241" transform="matrix(0.999999,-0.00103,0.00103,0.999999,-0.650948,0.83981)" width="9.213320725370068" height="4.821687007873152" style="fill: rgb(255, 255, 255);"/></g></g><g id="shape-92b73a20-4892-11ed-b107-8bd004d4c01f"><g id="fills-92b73a20-4892-11ed-b107-8bd004d4c01f"><rect rx="1.56108" ry="1.56108" x="860.5824119813005" y="629.8975169719611" transform="matrix(0.999999,-0.00103,0.00103,0.999999,-0.650872,0.891553)" width="9.213320725370524" height="4.821687007875312" style="fill: rgb(255, 255, 255);"/></g></g><g id="shape-92b73a21-4892-11ed-b107-8bd004d4c01f"><g id="fills-92b73a21-4892-11ed-b107-8bd004d4c01f"><rect rx="1.56108" ry="1.56108" x="874.8132966740936" y="629.88285804665" transform="matrix(0.999999,-0.00103,0.00103,0.999999,-0.650845,0.906206)" width="9.213320725370068" height="4.821687007874175" style="fill: rgb(255, 255, 255);"/></g></g><g id="shape-92b76130-4892-11ed-b107-8bd004d4c01f"><g id="fills-92b76130-4892-11ed-b107-8bd004d4c01f"><rect rx="1.56108" ry="1.56108" x="824.0179780015847" y="630.3253316920024" transform="matrix(0.999999,-0.00103,0.00103,0.999999,-0.651316,0.865672)" width="32.116364899636665" height="4.821687007872015" style="fill: rgb(255, 255, 255);"/></g></g><g id="shape-92b78840-4892-11ed-b107-8bd004d4c01f"><g id="fills-92b78840-4892-11ed-b107-8bd004d4c01f"><rect rx="1.56108" ry="1.56108" x="823.7383087430553" y="619.0530165000713" transform="matrix(0.999999,-0.00103,0.00103,0.999999,-0.639717,0.853589)" width="9.213320725370522" height="4.821687007873379" style="fill: rgb(255, 255, 255);"/></g></g><g id="shape-92b78841-4892-11ed-b107-8bd004d4c01f"><g id="fills-92b78841-4892-11ed-b107-8bd004d4c01f"><rect rx="1.56108" ry="1.56108" x="873.9649760433967" y="619.0012791007097" transform="matrix(0.999999,-0.00103,0.00103,0.999999,-0.639641,0.905332)" width="9.21332072537075" height="4.821687007872924" style="fill: rgb(255, 255, 255);"/></g></g><g id="shape-92b7d660-4892-11ed-b107-8bd004d4c01f"><g id="fills-92b7d660-4892-11ed-b107-8bd004d4c01f"><rect rx="1.56108" ry="1.56108" x="888.1958761796138" y="618.9866201594897" transform="matrix(0.999999,-0.00103,0.00103,0.999999,-0.639614,0.919986)" width="9.213320725370977" height="4.821687007873379" style="fill: rgb(255, 255, 255);"/></g></g><g id="shape-92b7d661-4892-11ed-b107-8bd004d4c01f"><g id="fills-92b7d661-4892-11ed-b107-8bd004d4c01f"><rect rx="1.56108" ry="1.56108" x="837.4005420636811" y="619.4290938207484" transform="matrix(0.999999,-0.00103,0.00103,0.999999,-0.640091,0.879459)" width="32.11636489963621" height="4.8216870078739476" style="fill: rgb(255, 255, 255);"/></g></g><g id="shape-92b7fd70-4892-11ed-b107-8bd004d4c01f"><g id="fills-92b7fd70-4892-11ed-b107-8bd004d4c01f"><rect rx="1.56108" ry="1.56108" x="837.1208882326682" y="608.1567631694845" transform="matrix(0.999999,-0.00103,0.00103,0.999999,-0.628486,0.867369)" width="9.213320725370522" height="4.821687007874402" style="fill: rgb(255, 255, 255);"/></g></g><g id="shape-92b82480-4892-11ed-b107-8bd004d4c01f"><g id="fills-92b82480-4892-11ed-b107-8bd004d4c01f"><rect rx="1.56108" ry="1.56108" x="887.3475555330097" y="608.105025770124" transform="matrix(0.999999,-0.00103,0.00103,0.999999,-0.628397,0.919093)" width="9.21332072536984" height="4.821687007872583" style="fill: rgb(255, 255, 255);"/></g></g><g id="shape-92b84b90-4892-11ed-b107-8bd004d4c01f"><g id="fills-92b84b90-4892-11ed-b107-8bd004d4c01f"><rect rx="1.56108" ry="1.56108" x="901.5784402258028" y="608.0903668448116" transform="matrix(0.999999,-0.00103,0.00103,0.999999,-0.628383,0.933765)" width="9.213320725370522" height="4.821687007873493" style="fill: rgb(255, 255, 255);"/></g></g><g id="shape-92b899b0-4892-11ed-b107-8bd004d4c01f"><g id="fills-92b899b0-4892-11ed-b107-8bd004d4c01f"><rect rx="1.56108" ry="1.56108" x="850.7831061257773" y="608.5328559494958" transform="matrix(0.999999,-0.00103,0.00103,0.999999,-0.62886,0.893238)" width="32.11636489963621" height="4.8216870078736065" style="fill: rgb(255, 255, 255);"/></g></g><g id="shape-92b8c0c0-4892-11ed-b107-8bd004d4c01f"><g id="fills-92b8c0c0-4892-11ed-b107-8bd004d4c01f"><path rx="0" ry="0" d="M780.556,768.405L759.906,735.839L824.564,684.186L851.244,654.568C858.298,646.737,868.984,643.249,879.3,645.41C889.615,647.572,898.003,655.057,901.319,665.061L901.319,665.061C906.339,680.203,898.453,696.599,883.489,702.129L841.269,717.733Z" style="fill: rgb(255, 182, 182);"/></g></g><g id="shape-92b95d00-4892-11ed-b107-8bd004d4c01f"><g id="fills-92b95d00-4892-11ed-b107-8bd004d4c01f"><path rx="0" ry="0" d="M296.583,532.618L296.746,691.006L407.707,690.892L407.544,532.504C407.545,530.165,406.021,528.099,403.786,527.411C403.273,527.242,402.735,527.159,402.195,527.166L301.936,527.269C300.517,527.268,299.155,527.831,298.151,528.834C297.147,529.837,296.583,531.199,296.583,532.618ZZM339.942,586.996C339.996,580.497,345.276,575.255,351.775,575.248C358.274,575.241,363.565,580.473,363.632,586.972L363.651,605.349C363.625,611.868,358.337,617.14,351.818,617.146C345.3,617.153,340.001,611.892,339.961,605.374Z" style="fill: rgb(47, 46, 65);"/></g></g><g id="shape-92b9ab20-4892-11ed-b107-8bd004d4c01f"><g id="fills-92b9ab20-4892-11ed-b107-8bd004d4c01f"><path rx="0" ry="0" d="M296.401,685.941L296.417,701.214C296.424,702.861,297.754,704.195,299.4,704.207L405.08,704.098C406.728,704.089,408.059,702.748,408.057,701.099L408.041,685.826Z" style="fill: rgb(63, 61, 86);"/></g></g><g id="shape-92b9f940-4892-11ed-b107-8bd004d4c01f"><g id="fills-92b9f940-4892-11ed-b107-8bd004d4c01f"><path rx="0" ry="0" d="M121.78,294.166L122.078,583.36C122.092,591.033,128.317,597.246,135.991,597.244L564.546,596.803C572.22,596.789,578.433,590.563,578.431,582.89L578.133,293.696C578.107,286.03,571.886,279.829,564.22,279.827L135.665,280.268C127.998,280.286,121.79,286.5,121.78,294.166ZZ" style="fill: rgb(63, 61, 86);"/></g></g><g id="shape-92ba4760-4892-11ed-b107-8bd004d4c01f"><g id="fills-92ba4760-4892-11ed-b107-8bd004d4c01f"><path rx="0" ry="0" d="M131.837,297.754L132.128,579.782C132.139,583.881,135.464,587.2,139.564,587.202L560.968,586.768C565.068,586.757,568.386,583.432,568.389,579.332L568.099,297.305C568.094,293.2,564.767,289.873,560.663,289.869L139.258,290.303C135.153,290.316,131.833,293.649,131.837,297.754ZZ" style="fill: rgb(255, 255, 255);"/></g></g><g id="shape-92bae3a0-4892-11ed-b107-8bd004d4c01f"><g id="fills-92bae3a0-4892-11ed-b107-8bd004d4c01f"><path rx="0" ry="0" d="M210.461,703.264C211.331,704.353,212.651,704.983,214.045,704.975L464.754,704.716C466.142,704.713,467.456,704.085,468.329,703.006C469.203,701.926,469.544,700.511,469.257,699.152L465.347,680.67C465.017,679.139,463.935,677.879,462.471,677.322C461.949,677.118,461.394,677.014,460.833,677.015L217.893,677.265C217.333,677.265,216.778,677.371,216.256,677.576C214.793,678.135,213.713,679.398,213.387,680.93L209.514,699.42C209.235,700.778,209.583,702.19,210.461,703.264ZZ" style="fill: rgb(47, 46, 65);"/></g></g><g id="shape-92bb31c0-4892-11ed-b107-8bd004d4c01f"><g id="fills-92bb31c0-4892-11ed-b107-8bd004d4c01f"><path rx="0" ry="0" d="M547.027,328.733L152.72,329.139C151.867,329.121,151.186,328.426,151.185,327.573C151.184,326.72,151.864,326.023,152.717,326.003L547.023,325.597C547.876,325.615,548.558,326.311,548.559,327.164C548.56,328.016,547.879,328.713,547.027,328.733ZZ" style="fill: rgb(63, 61, 86);"/></g></g><g id="shape-92bb7fe0-4892-11ed-b107-8bd004d4c01f"><g id="fills-92bb7fe0-4892-11ed-b107-8bd004d4c01f"><ellipse rx="9.189506951040586" ry="9.394302321589977" cx="179.53977665549394" cy="308.5752441346209" transform="matrix(0.999999,-0.00103,0.00103,0.999999,-0.317757,0.185101)" style="fill: rgb(63, 61, 86);"/></g></g><g id="shape-92bba6f0-4892-11ed-b107-8bd004d4c01f"><g id="fills-92bba6f0-4892-11ed-b107-8bd004d4c01f"><ellipse rx="9.189506951040528" ry="9.394302321590033" cx="211.285312433368" cy="308.5425437475404" transform="matrix(0.999999,-0.00103,0.00103,0.999999,-0.317711,0.217804)" style="fill: rgb(63, 61, 86);"/></g></g><g id="shape-92bba6f1-4892-11ed-b107-8bd004d4c01f"><g id="fills-92bba6f1-4892-11ed-b107-8bd004d4c01f"><ellipse rx="9.189506951040586" ry="9.394302321589805" cx="243.03086365466743" cy="308.5098433445517" transform="matrix(0.999999,-0.00103,0.00103,0.999999,-0.317656,0.250501)" style="fill: rgb(63, 61, 86);"/></g></g><g id="shape-92bbf510-4892-11ed-b107-8bd004d4c01f"><g id="fills-92bbf510-4892-11ed-b107-8bd004d4c01f"><path rx="0" ry="0" d="M527.882,301.145L505.335,301.168C504.408,301.191,503.668,301.949,503.669,302.877C503.67,303.804,504.411,304.561,505.338,304.581L527.886,304.558C528.819,304.544,529.567,303.783,529.567,302.85C529.566,301.917,528.815,301.157,527.882,301.145ZZ" style="fill: rgb(63, 61, 86);"/></g></g><g id="shape-92bc1c20-4892-11ed-b107-8bd004d4c01f"><g id="fills-92bc1c20-4892-11ed-b107-8bd004d4c01f"><path rx="0" ry="0" d="M527.889,307.554L505.341,307.577C504.414,307.599,503.673,308.358,503.674,309.286C503.675,310.214,504.417,310.971,505.345,310.99L527.892,310.967C528.827,310.955,529.578,310.194,529.577,309.259C529.576,308.324,528.823,307.565,527.889,307.554ZZ" style="fill: rgb(63, 61, 86);"/></g></g><g id="shape-92bc4330-4892-11ed-b107-8bd004d4c01f"><g id="fills-92bc4330-4892-11ed-b107-8bd004d4c01f"><path rx="0" ry="0" d="M527.895,313.963L505.348,313.986C504.421,314.009,503.682,314.767,503.683,315.695C503.683,316.622,504.424,317.379,505.351,317.399L527.899,317.376C528.832,317.362,529.581,316.601,529.58,315.668C529.579,314.735,528.828,313.975,527.895,313.963ZZ" style="fill: rgb(63, 61, 86);"/></g></g><g id="shape-92bcb860-4892-11ed-b107-8bd004d4c01f"><g id="fills-92bcb860-4892-11ed-b107-8bd004d4c01f"><path rx="0" ry="0" d="M1071.862,691.845C1073.262,695.908,1077.121,698.605,1081.418,698.524L1122.329,697.429C1126.662,697.34,1130.419,694.408,1131.558,690.227L1137.284,628.313C1139.339,629.241,1141.576,629.698,1143.83,629.651C1152.068,629.436,1158.571,622.583,1158.356,614.346C1158.14,606.108,1151.288,599.605,1143.05,599.82C1142.149,599.818,1141.251,599.913,1140.37,600.102C1138.429,598.007,1135.694,596.83,1132.839,596.862L1069.908,598.552C1069.386,598.572,1068.867,598.637,1068.356,598.746C1065.564,599.27,1063.135,600.975,1061.695,603.423C1060.255,605.871,1059.944,608.823,1060.843,611.517ZM1138.467,624.108L1142.571,609.351C1143.038,607.647,1143.047,605.849,1142.597,604.14C1142.797,604.139,1142.974,604.044,1143.173,604.043C1149.055,603.916,1153.93,608.571,1154.074,614.452C1154.218,620.333,1149.576,625.221,1143.695,625.381C1141.869,625.44,1140.061,625,1138.467,624.108ZZ" style="fill: rgb(47, 46, 65);"/></g></g><g id="shape-92bd0680-4892-11ed-b107-8bd004d4c01f"><g id="fills-92bd0680-4892-11ed-b107-8bd004d4c01f"><path rx="0" ry="0" d="M1068.356,598.746C1069.704,606.411,1084.784,611.785,1102.909,610.829C1119.576,610.044,1133.198,604.178,1135.688,597.239C1134.763,596.966,1133.802,596.839,1132.839,596.862L1069.908,598.552C1069.386,598.572,1068.867,598.637,1068.356,598.746ZZ" style="fill: rgb(63, 61, 86);"/></g></g><g id="shape-92bd54a0-4892-11ed-b107-8bd004d4c01f"><g id="fills-92bd54a0-4892-11ed-b107-8bd004d4c01f"><path rx="0" ry="0" d="M1106.279,657.79C1106.362,657.769,1106.441,657.735,1106.512,657.688L1115.391,651.863C1115.609,651.721,1115.74,651.478,1115.74,651.217C1115.74,650.957,1115.608,650.714,1115.39,650.572L1106.149,644.532C1105.918,644.38,1105.624,644.363,1105.377,644.487C1105.13,644.612,1104.968,644.859,1104.953,645.135C1104.938,645.411,1105.072,645.674,1105.304,645.824L1113.558,651.218L1105.665,656.397C1105.35,656.603,1105.23,657.008,1105.382,657.353C1105.534,657.699,1105.913,657.884,1106.279,657.79ZZ" style="fill: rgb(108, 99, 255);"/></g></g><g id="shape-92bd7bb0-4892-11ed-b107-8bd004d4c01f"><g id="fills-92bd7bb0-4892-11ed-b107-8bd004d4c01f"><path rx="0" ry="0" d="M1092.247,658.452C1092.552,658.375,1092.779,658.12,1092.821,657.808C1092.864,657.496,1092.713,657.19,1092.44,657.034L1084.245,652.347L1092.155,646.459C1092.376,646.294,1092.492,646.024,1092.46,645.75C1092.428,645.476,1092.253,645.241,1092,645.131C1091.746,645.022,1091.454,645.056,1091.233,645.221L1082.378,651.813C1082.169,651.968,1082.052,652.219,1082.068,652.479C1082.083,652.739,1082.229,652.973,1082.455,653.102L1091.673,658.374C1091.847,658.473,1092.052,658.502,1092.247,658.452ZZ" style="fill: rgb(108, 99, 255);"/></g></g><g id="shape-92bdc9d0-4892-11ed-b107-8bd004d4c01f"><g id="fills-92bdc9d0-4892-11ed-b107-8bd004d4c01f"><path rx="0" ry="0" d="M1105.401,662.888C1105.475,662.869,1105.547,662.839,1105.612,662.798C1105.787,662.692,1105.913,662.52,1105.961,662.321C1106.009,662.122,1105.976,661.912,1105.87,661.737L1093.253,641.043C1093.031,640.679,1092.556,640.565,1092.192,640.787C1091.829,641.009,1091.713,641.484,1091.935,641.848L1104.551,662.542C1104.728,662.831,1105.072,662.971,1105.401,662.888ZZ" style="fill: rgb(108, 99, 255);"/></g></g><g id="shape-92bdf0e0-4892-11ed-b107-8bd004d4c01f"><g id="fills-92bdf0e0-4892-11ed-b107-8bd004d4c01f"><rect rx="3.26417" ry="3.26417" x="323.79582374935217" y="414.17002584736247" transform="matrix(0.999999,-0.00103,0.00103,0.999999,-0.435061,0.374101)" width="78.32779704507675" height="16.749484581601223" style="fill: rgb(108, 99, 255);"/></g></g><g id="shape-92be17f0-4892-11ed-b107-8bd004d4c01f"><g id="fills-92be17f0-4892-11ed-b107-8bd004d4c01f"><rect rx="3.26417" ry="3.26417" x="284.0503159771449" y="447.6689617949248" transform="matrix(0.999999,-0.00103,0.00103,0.999999,-0.469568,0.374154)" width="157.88782564253506" height="16.749484581602132" style="fill: rgb(230, 230, 230);"/></g></g><g id="shape-92be3f00-4892-11ed-b107-8bd004d4c01f"><g id="fills-92be3f00-4892-11ed-b107-8bd004d4c01f"><rect rx="3.26417" ry="3.26417" x="284.08482250366706" y="481.1678977424881" transform="matrix(0.999999,-0.00103,0.00103,0.999999,-0.504076,0.374209)" width="157.88782564253518" height="16.749484581601678" style="fill: rgb(230, 230, 230);"/></g></g><g id="shape-92bedb40-4892-11ed-b107-8bd004d4c01f"><g id="fills-92bedb40-4892-11ed-b107-8bd004d4c01f"><path rx="0" ry="0" d="M449.568,593.254L449.904,594.31L449.921,594.346L460.03,624.972L471.659,660.265L493.537,726.59L493.759,736.895L493.759,736.931L495.466,819.836L490.985,831.081L496.06,849.503C496.06,849.503,493.706,821.65,481.249,837.66C474.194,846.758,465.941,856.068,459.167,864.796C469.055,868.785,479.1,872.392,489.304,875.617C491.507,876.319,493.728,876.987,495.948,877.654C496.424,877.794,496.9,877.935,497.375,878.075C531.199,888.04,566.161,893.623,601.405,894.687C603.238,894.738,605.035,894.771,606.779,894.805C607.396,894.822,607.995,894.839,608.594,894.838C610.567,894.854,612.522,894.869,614.495,894.867C618.477,894.863,622.441,894.8,626.387,894.679C655.595,893.825,684.629,889.868,712.999,882.874C712.793,871.159,712.251,857.47,711.478,842.849C711.118,835.679,703.2,827.918,702.717,820.413C702.376,814.776,709.471,809.466,709.095,803.741C706.663,768.491,703.682,782.026,701.436,757.065C701.204,754.616,700.991,752.273,700.795,750.036C699.351,734.006,698.354,723.983,698.354,723.983L707.771,664.232L722.561,570.422L721.414,568.538L720.127,567.906L641.566,529.123L637.292,518.204C634.744,511.769,628.54,507.529,621.619,507.491L569.894,507.333C564.448,507.314,559.327,509.924,556.142,514.341L542.157,533.753Z" style="fill: rgb(63, 61, 86);"/></g></g><g id="shape-92bf5070-4892-11ed-b107-8bd004d4c01f"><g id="fills-92bf5070-4892-11ed-b107-8bd004d4c01f"><path rx="0" ry="0" d="M505.449,711.814L493.759,736.895L485.779,754.028L472.094,826.079L465.213,833.398L459.285,807.521L397.528,821.3C395.491,810.045,396.986,821.682,395.723,809.333C396.075,808.981,396.444,808.628,396.814,808.275C397.8,807.358,398.627,806.494,398.608,805.666C397.86,763.068,399.899,690.57,417.507,646.632C420.264,639.458,423.902,632.655,428.338,626.379C428.69,625.903,429.024,625.426,429.358,624.951C437.486,613.544,442.618,602.316,449.904,594.328L449.904,594.31C449.949,594.274,449.991,594.232,450.027,594.187C450.054,594.174,450.077,594.156,450.097,594.134L500.174,567.515L502.385,627.905L503.963,671.313Z" style="fill: rgb(63, 61, 86);"/></g></g><g id="shape-92bfc5a0-4892-11ed-b107-8bd004d4c01f"><g id="fills-92bfc5a0-4892-11ed-b107-8bd004d4c01f"><path rx="0" ry="0" d="M686.121,718.748L700.788,750.045L705.907,760.944L719.736,832.96L726.609,840.247L732.498,814.365L735.277,813.792L785.393,803.358L800.052,849.745C806.829,838.427,804.709,823.903,794.979,814.994C793.981,814.092,793.148,813.214,793.171,812.383C793.951,762.279,790.792,670.794,763.077,633.168C754.274,621.227,748.988,609.33,741.306,601.023C741.282,601,741.282,600.976,741.258,600.976L722.554,570.42L721.412,568.545L720.128,567.905Z" style="fill: rgb(63, 61, 86);"/></g></g><g id="shape-92bfecb0-4892-11ed-b107-8bd004d4c01f"><g id="fills-92bfecb0-4892-11ed-b107-8bd004d4c01f"><ellipse rx="68.8132521508985" ry="68.81325215089856" cx="597.1644534462964" cy="423.77147982897696" transform="matrix(0.999999,-0.00103,0.00103,0.999999,-0.436201,0.615351)" style="fill: rgb(255, 182, 182);"/></g></g><g id="shape-92c061e0-4892-11ed-b107-8bd004d4c01f"><g id="fills-92c061e0-4892-11ed-b107-8bd004d4c01f"><path rx="0" ry="0" d="M690.124,375.61C689.045,374.46,687.545,373.798,685.968,373.776L687,370.903C687.685,369.06,687.325,366.991,686.056,365.488C684.788,363.986,682.808,363.284,680.877,363.651L677.109,364.381L677.462,361.863C677.737,359.955,676.985,358.044,675.485,356.834C673.984,355.625,671.957,355.297,670.151,355.971C668.516,356.617,666.676,356.488,665.147,355.621C663.612,354.781,662.526,353.308,662.178,351.593L660.858,345.263L660.719,344.923C654.315,334.274,642.014,326.534,626.969,323.708C613.577,321.173,599.849,322.485,586.615,323.718C581.365,324.218,575.435,324.78,570.496,327.812C566.298,330.411,562.752,335.604,563.483,340.838C550.429,336.852,536.446,344.85,529.522,354.927C521.318,366.919,519.99,381.932,519.786,393.669C519.228,421.437,524.981,444.148,536.843,461.185C537.71,462.42,537.928,464.999,539.644,465.862L539.288,465.291C541.204,466.246,543.151,467.789,542.427,469.442C540.347,474.201,554.211,484.703,563.974,488.168C581.787,494.497,605.461,493.932,622.107,491.629L622.69,487.691C628.697,486.866,632.926,485.302,634.113,482.861C636.212,481.067,638.001,479.459,639.56,477.975L639.575,477.959C639.606,477.928,639.668,477.882,639.698,477.851C647.212,470.631,648.953,466.522,649.734,460.266C650.484,454.134,649.134,447.912,647.754,442.308C676.7,446.756,636.325,411.494,663.282,404.64C663.592,404.545,663.906,404.467,664.224,404.408C665.012,404.222,665.799,404.036,666.556,403.819C670.202,402.825,673.693,401.329,676.929,399.376C684.461,394.781,686.941,388.694,690.825,381.833C691.976,379.828,691.692,377.308,690.124,375.61ZZ" style="fill: rgb(47, 46, 65);"/></g></g><g id="shape-92c2abd0-4892-11ed-b107-8bd004d4c01f"><g id="fills-92c2abd0-4892-11ed-b107-8bd004d4c01f"><path rx="0" ry="0" d="M840.855,723.488C840.843,726.191,840.816,729.974,840.697,734.654C840.682,735.302,840.667,735.967,840.653,736.646C840.461,745.248,840.267,752.461,839.951,760.476C839.936,761.032,839.922,761.573,839.891,762.129C839.47,773.31,838.804,786.33,837.652,806.948C835.513,845.033,831.681,812.189,827.88,825.552C827.695,826.216,827.495,827.004,827.311,827.931C826.737,831.293,825.765,834.576,824.418,837.709C822.396,838.916,820.312,840.076,818.259,841.237C812.41,844.501,806.467,847.642,800.478,850.629C797.113,852.301,793.733,853.941,790.337,855.52C789.797,855.767,789.272,856.015,788.747,856.247C771.357,864.313,753.433,871.173,735.102,876.781C731.52,877.865,727.954,878.919,724.341,879.896C720.574,880.95,716.807,881.942,712.993,882.873C684.624,889.868,655.59,893.827,626.383,894.683C622.445,894.811,618.476,894.861,614.492,894.865C612.515,894.868,610.569,894.854,608.593,894.841C607.99,894.841,607.388,894.826,606.786,894.812C605.041,894.767,603.234,894.738,601.411,894.694C566.167,893.631,531.204,888.046,497.383,878.076L495.946,877.66C493.721,876.983,491.512,876.321,489.303,875.613C479.107,872.396,469.06,868.792,459.162,864.803C451.607,861.768,444.139,858.512,436.759,855.035C436.691,855.016,436.628,854.985,436.573,854.942C435.028,854.233,433.468,853.494,431.923,852.739C431.722,852.631,431.505,852.523,431.289,852.415C425.526,849.61,419.824,846.671,414.184,843.599C409.432,832.716,402.758,830.638,398.609,821.067C397.402,818.224,396.528,815.25,396.006,812.206C396.006,812.175,395.99,812.144,395.99,812.097C396.428,817.842,394.142,801.907,395.975,812.036C395.959,811.85,395.943,811.65,395.928,811.418C395.881,810.862,395.818,810.183,395.725,809.333C390.374,757.619,390.653,698.47,388.302,649.733C388.144,646.583,387.982,643.566,387.814,640.684C387.767,639.726,387.704,638.784,387.641,637.858C387.749,637.58,387.872,637.286,388.011,637.008C388.04,636.928,388.076,636.85,388.119,636.776C388.164,636.68,388.216,636.587,388.273,636.498C388.304,636.452,388.35,636.39,388.381,636.344C388.403,636.29,388.429,636.239,388.458,636.189C388.597,635.973,388.751,635.741,388.921,635.524C388.998,635.432,389.059,635.354,389.136,635.277C389.19,635.198,389.252,635.126,389.322,635.061C389.369,634.986,389.426,634.919,389.491,634.86C389.553,634.798,389.615,634.721,389.692,634.643C389.725,634.595,389.767,634.553,389.815,634.52C389.937,634.379,390.071,634.25,390.216,634.133C390.767,633.626,391.355,633.161,391.975,632.742C392.191,632.602,392.423,632.463,392.639,632.308C394.194,631.376,395.832,630.588,397.532,629.956C398.119,629.739,398.705,629.538,399.338,629.321C399.57,629.259,399.786,629.182,400.018,629.104C400.357,628.996,400.697,628.887,401.052,628.81C402.812,628.283,404.711,627.833,406.765,627.414C407.012,627.367,407.274,627.321,407.537,627.259C407.907,627.181,408.293,627.119,408.679,627.057C409.204,626.963,409.745,626.87,410.285,626.777C414.871,626.046,420.075,625.501,425.82,625.139C426.36,625.108,426.901,625.077,427.441,625.045C428.074,625.014,428.707,624.982,429.356,624.95C429.896,624.919,430.452,624.903,431.008,624.887C431.549,624.856,432.105,624.84,432.676,624.823C434.236,624.776,435.842,624.728,437.479,624.695C442.143,624.598,447.054,624.623,452.212,624.726C454.606,624.785,457.046,624.845,459.548,624.95C459.718,624.95,459.872,624.965,460.027,624.965C462.204,625.04,464.397,625.131,466.652,625.252C468.228,625.327,469.818,625.403,471.409,625.494C472.907,625.585,474.421,625.676,475.95,625.783C477.139,625.843,478.328,625.935,479.533,626.011C480.552,626.087,481.571,626.163,482.591,626.224L483.981,626.315C484.738,626.376,485.494,626.422,486.267,626.498C487.966,626.635,489.664,626.772,491.394,626.91C493.109,627.062,494.854,627.215,496.599,627.368C498.344,627.52,500.105,627.688,501.866,627.856C502.051,627.872,502.221,627.887,502.391,627.902C503.997,628.07,505.604,628.223,507.225,628.391C507.596,628.422,507.982,628.452,508.353,628.498C509.899,628.652,511.475,628.832,513.036,628.996C513.515,629.048,513.991,629.097,514.471,629.149C515.694,629.281,516.899,629.395,518.129,629.538C519.751,629.722,521.404,629.89,523.01,630.105C524.261,630.242,525.512,630.38,526.763,630.533C528.725,630.763,530.717,631.008,532.71,631.268C533.467,631.36,534.223,631.452,534.98,631.56C540.664,632.264,546.41,633.046,552.248,633.858C561.099,635.1,570.088,636.45,579.14,637.908C588.207,639.365,597.325,640.906,606.495,642.528C608.812,642.943,611.129,643.357,613.461,643.787C614.511,643.987,615.562,644.186,616.612,644.386C618.404,644.709,620.196,645.046,621.987,645.384C623.779,645.722,625.571,646.06,627.363,646.414C629.494,646.828,631.641,647.243,633.773,647.658C647.814,650.423,661.778,653.374,675.402,656.464C677.642,656.971,679.882,657.494,682.106,658.002C686.555,659.032,690.963,660.077,695.329,661.138C696.534,661.415,697.723,661.707,698.913,661.999C701.879,662.738,704.845,663.476,707.764,664.23L708.274,664.368C710.421,664.891,712.522,665.429,714.623,665.983C719.582,667.275,724.458,668.583,729.252,669.906C732.434,670.783,735.58,671.671,738.691,672.568C743.34,673.907,747.898,675.261,752.331,676.631C753.428,676.97,754.525,677.308,755.606,677.632C758.851,678.632,762.048,679.648,765.154,680.664C767.625,681.465,770.035,682.281,772.415,683.097C774.794,683.913,777.126,684.729,779.413,685.545C780.881,686.069,782.333,686.623,783.785,687.147C785.871,687.917,787.925,688.687,789.934,689.457C790.552,689.688,791.154,689.934,791.757,690.165C792.143,690.335,792.514,690.473,792.885,690.628C793.611,690.92,794.353,691.197,795.063,691.49C795.789,691.767,796.5,692.06,797.211,692.368C797.906,692.645,798.617,692.938,799.297,693.231C799.992,693.508,800.672,693.801,801.351,694.109C801.923,694.34,802.479,694.587,803.02,694.833C804.117,695.311,805.214,695.788,806.28,696.281C806.805,696.528,807.331,696.759,807.856,697.006L809.061,697.56C809.231,697.653,809.401,697.73,809.571,697.807C809.957,697.992,810.359,698.192,810.745,698.377C811.642,698.793,812.522,699.24,813.388,699.656C814.546,700.242,815.674,700.828,816.756,701.398C817.853,701.984,818.919,702.569,819.939,703.14C820.109,703.232,820.264,703.325,820.434,703.417C820.665,703.54,820.897,703.679,821.129,703.803C821.917,704.25,822.674,704.712,823.431,705.159C824.915,706.069,826.321,706.963,827.635,707.857C827.929,708.058,828.207,708.258,828.5,708.443C829.474,709.137,830.401,709.816,831.267,710.51C831.267,710.525,831.267,710.525,831.282,710.525C831.576,710.741,831.854,710.973,832.132,711.189C832.364,711.405,832.612,711.59,832.843,711.806C833.647,712.5,834.389,713.163,835.069,713.842C835.297,714.051,835.514,714.273,835.719,714.505C835.809,714.58,835.891,714.662,835.966,714.752C836.275,715.061,836.553,715.369,836.816,715.678C836.857,715.72,836.893,715.767,836.925,715.817C837.296,716.249,837.636,716.681,837.961,717.113C838.115,717.329,838.285,717.545,838.425,717.761C838.61,718.023,838.796,718.301,838.951,718.563C839.09,718.78,839.214,719.011,839.337,719.227C839.666,719.783,839.945,720.367,840.173,720.971C840.347,721.381,840.487,721.805,840.591,722.237C840.709,722.647,840.797,723.065,840.855,723.488ZZ" style="fill: rgb(47, 46, 65);"/></g></g><g id="shape-92c4a7a0-4892-11ed-b107-8bd004d4c01f"><g id="fills-92c4a7a0-4892-11ed-b107-8bd004d4c01f"><path opacity="0.2" rx="0" ry="0" d="M840.855,723.488C840.843,726.191,840.816,729.974,840.697,734.654C840.682,735.302,840.652,735.967,840.637,736.646C840.489,743.21,840.266,751.318,839.951,760.476C839.936,761.032,839.922,761.573,839.891,762.129C839.47,773.31,838.804,786.33,837.652,806.948C835.513,845.033,831.681,812.189,827.88,825.552C817.279,819.045,805.658,812.231,793.235,805.233C790.994,803.969,788.733,802.7,786.451,801.425C761.604,787.598,733.852,773.11,704.881,758.762C703.738,758.192,702.579,757.622,701.436,757.067C635.072,724.349,562.641,692.533,503.965,671.312C492.64,667.216,481.826,663.52,471.661,660.272C450.249,653.453,431.743,648.684,417.502,646.63C402.674,644.483,392.436,645.266,388.302,649.733C388.144,646.583,387.981,643.566,387.814,640.684C387.751,639.726,387.688,638.784,387.626,637.858C387.721,637.603,387.844,637.361,387.964,637.116C387.981,637.08,387.993,637.043,388.011,637.008C388.04,636.928,388.076,636.85,388.119,636.776C388.164,636.68,388.216,636.587,388.273,636.498C388.323,636.388,388.385,636.285,388.458,636.189C388.597,635.973,388.751,635.741,388.92,635.524C389.045,635.362,389.179,635.207,389.321,635.061C389.369,634.986,389.426,634.919,389.491,634.86C389.553,634.798,389.615,634.721,389.692,634.643C389.725,634.595,389.767,634.553,389.815,634.52C389.937,634.379,390.071,634.25,390.216,634.133C390.767,633.626,391.355,633.16,391.975,632.741C392.191,632.602,392.423,632.463,392.639,632.308C394.194,631.376,395.832,630.588,397.532,629.956C398.119,629.739,398.705,629.538,399.338,629.321C399.57,629.259,399.786,629.181,400.018,629.104C400.357,628.995,400.697,628.887,401.052,628.809C402.812,628.283,404.711,627.833,406.765,627.414C407.382,627.289,408.031,627.165,408.679,627.056C409.204,626.963,409.745,626.87,410.285,626.777C414.871,626.046,420.075,625.5,425.82,625.139C426.36,625.108,426.901,625.076,427.441,625.045C428.074,625.013,428.707,624.982,429.356,624.95C429.896,624.919,430.452,624.903,431.008,624.887C431.549,624.855,432.105,624.839,432.676,624.823C434.236,624.775,435.842,624.727,437.479,624.695C442.143,624.613,447.054,624.639,452.212,624.741C454.606,624.785,457.046,624.86,459.548,624.966C459.702,624.965,459.872,624.981,460.027,624.98C462.204,625.04,464.413,625.146,466.652,625.252C468.227,625.327,469.818,625.403,471.409,625.494C472.907,625.585,474.421,625.676,475.95,625.783C477.139,625.843,478.328,625.935,479.533,626.011C480.552,626.087,481.571,626.163,482.591,626.224C483.811,626.315,485.031,626.406,486.267,626.498C487.965,626.635,489.664,626.772,491.394,626.91C493.109,627.062,494.854,627.215,496.599,627.367C498.344,627.52,500.105,627.688,501.866,627.856C502.051,627.871,502.221,627.887,502.391,627.902C503.997,628.07,505.603,628.223,507.225,628.391C516.214,629.293,525.466,630.349,534.98,631.559C540.664,632.279,546.42,633.051,552.248,633.874C561.099,635.115,570.088,636.465,579.14,637.908C588.207,639.365,597.325,640.905,606.495,642.528C608.812,642.942,611.129,643.357,613.461,643.787C616.303,644.309,619.145,644.842,621.987,645.384C623.779,645.722,625.571,646.06,627.363,646.414C629.494,646.828,631.642,647.243,633.773,647.658C647.814,650.423,661.778,653.374,675.402,656.464C677.642,656.971,679.882,657.494,682.106,658.001C686.555,659.032,690.963,660.077,695.329,661.138C696.534,661.43,697.724,661.723,698.913,662.015C701.894,662.753,704.845,663.491,707.764,664.23L707.764,664.245C707.934,664.276,708.104,664.322,708.274,664.368C710.406,664.906,712.522,665.445,714.623,665.999C719.582,667.291,724.458,668.593,729.252,669.906C732.434,670.798,735.586,671.676,738.691,672.568C743.341,673.922,747.898,675.277,752.331,676.631C753.428,676.97,754.525,677.308,755.606,677.632C758.851,678.648,762.033,679.658,765.154,680.664C767.625,681.465,770.035,682.281,772.415,683.097C774.794,683.913,777.126,684.729,779.413,685.545C780.896,686.069,782.348,686.608,783.785,687.131C785.886,687.901,787.926,688.671,789.934,689.457C790.552,689.688,791.154,689.934,791.757,690.165C792.885,690.597,793.982,691.043,795.063,691.49C795.789,691.767,796.5,692.06,797.211,692.368C797.906,692.645,798.617,692.938,799.297,693.231C799.992,693.508,800.672,693.801,801.351,694.109C801.923,694.34,802.479,694.587,803.02,694.833C804.117,695.311,805.214,695.788,806.28,696.281C806.805,696.528,807.331,696.759,807.856,697.006L809.061,697.56C809.231,697.653,809.401,697.73,809.571,697.807C810.885,698.423,812.152,699.04,813.388,699.656C814.546,700.242,815.674,700.828,816.756,701.398C818.039,702.076,819.259,702.739,820.434,703.417C820.665,703.54,820.897,703.679,821.129,703.803C821.917,704.25,822.674,704.712,823.432,705.159C824.915,706.069,826.321,706.963,827.635,707.857C828.933,708.752,830.139,709.631,831.267,710.51C831.267,710.525,831.267,710.525,831.282,710.525C831.823,710.957,832.349,711.389,832.843,711.805C833.647,712.5,834.389,713.163,835.069,713.842C835.297,714.051,835.514,714.273,835.719,714.505C835.809,714.579,835.891,714.662,835.966,714.752C836.291,715.107,836.615,715.462,836.925,715.817C837.296,716.249,837.636,716.681,837.961,717.113C838.115,717.329,838.286,717.545,838.425,717.761C838.61,718.023,838.796,718.301,838.951,718.563C839.09,718.779,839.214,719.011,839.337,719.227C839.666,719.783,839.945,720.367,840.173,720.971C840.343,721.383,840.482,721.806,840.591,722.237C840.709,722.647,840.797,723.065,840.855,723.488ZZ"/></g></g></g><g id="shape-ab6b6d10-4893-11ed-b107-8bd004d4c01f"><g id="fills-ab6b6d10-4893-11ed-b107-8bd004d4c01f"><ellipse rx="90.26480682656837" ry="90.2648068265678" cx="1144.35773870653" cy="441.35773870653" transform="matrix(0.999999,-0.00103,0.00103,0.999999,-0.454026,1.179012)" style="fill: rgb(68, 103, 192); fill-opacity: 1;"/></g></g><g id="shape-5d4c5010-4896-11ed-b107-8bd004d4c01f" opacity="0.7" rx="0" ry="0" style="fill: rgb(0, 0, 0);"><g id="shape-5d4c5011-4896-11ed-b107-8bd004d4c01f"><g id="fills-5d4c5011-4896-11ed-b107-8bd004d4c01f"><path rx="0" ry="0" d="M527,97L638,97L638,205L527,205Z" style="fill: rgb(46, 0, 30);"/></g></g><g id="shape-5d4c5012-4896-11ed-b107-8bd004d4c01f"><g id="fills-5d4c5012-4896-11ed-b107-8bd004d4c01f"><path rx="0" ry="0" d="M522,92L522,210L643,210L643,92ZM527.041,97.048L637.959,97.048L637.959,204.958L527.015,204.958Z" style="fill: rgb(255, 43, 194);"/></g></g><g id="shape-5d4c5013-4896-11ed-b107-8bd004d4c01f"><g id="fills-5d4c5013-4896-11ed-b107-8bd004d4c01f"><path rx="0" ry="0" d="M610.57,141.189C609.636,140.815,608.63,140.644,607.622,140.688C601.228,140.688,596.958,145.5,596.958,153.477C596.958,162.6,601.329,166.266,607.015,166.266C608.209,166.301,609.399,166.116,610.523,165.72L610.57,141.189ZZM587.798,153.879C587.798,142.327,595.413,133.303,607.912,133.303C608.793,133.285,609.674,133.32,610.55,133.409L610.55,120.521C610.55,120.245,610.779,120.021,611.062,120.021L619.238,120.021C619.642,120.021,619.744,120.172,619.744,120.422L619.744,165.72C619.713,167.343,619.799,168.966,620,170.577C620,170.926,620,170.979,619.696,171.124C615.634,173.013,611.192,173.995,606.691,174C595.67,174,587.805,167.359,587.798,153.879ZZM570.476,145.849L584.715,172.743C584.971,173.138,584.816,173.533,584.412,173.533L575.575,173.533C575.104,173.59,574.658,173.314,574.509,172.874C571.258,166.332,567.94,159.541,564.553,152.503L564.452,152.503C561.403,159.144,558.051,166.385,554.8,172.907C554.633,173.252,554.272,173.467,553.882,173.454L545.451,173.454C544.945,173.454,544.897,173.052,545.147,172.756L559.063,146.638L545.606,120.745C545.478,120.613,545.445,120.418,545.524,120.254C545.603,120.089,545.778,119.989,545.963,120.001L554.698,120.001C555.204,120.001,555.461,120.1,555.609,120.547C558.813,127.129,562.064,133.632,565.113,140.293L565.214,140.293C568.155,133.751,571.407,127.129,574.509,120.666C574.759,120.264,574.914,120.008,575.42,120.008L583.602,120.008C584.007,120.008,584.155,120.304,583.906,120.751L570.476,145.849ZZ" style="fill: rgb(255, 43, 194);"/></g></g></g><g id="shape-6cb57900-4896-11ed-b107-8bd004d4c01f" opacity="0.7" rx="0" ry="0" style="fill: rgb(0, 0, 0);"><g id="shape-6cb57901-4896-11ed-b107-8bd004d4c01f"><g id="fills-6cb57901-4896-11ed-b107-8bd004d4c01f"><path rx="0" ry="0" d="M885.54,331.41L942.16,442.22L847,331.41Z" style="fill: rgb(234, 108, 0);"/></g></g><g id="shape-6cb57902-4896-11ed-b107-8bd004d4c01f"><g id="fills-6cb57902-4896-11ed-b107-8bd004d4c01f"><path rx="0" ry="0" d="M998.79,331.41L942.17,442.22L1037.33,331.41Z" style="fill: rgb(234, 108, 0);"/></g></g><g id="shape-6cb57903-4896-11ed-b107-8bd004d4c01f"><g id="fills-6cb57903-4896-11ed-b107-8bd004d4c01f"><path rx="0" ry="0" d="M885.54,331.41L998.77,331.41L942.16,442.22Z" style="fill: rgb(253, 173, 0);"/></g></g><g id="shape-6cb57904-4896-11ed-b107-8bd004d4c01f"><g id="fills-6cb57904-4896-11ed-b107-8bd004d4c01f"><path rx="0" ry="0" d="M942.16,270L888.52,275.67L885.52,331.41Z" style="fill: rgb(253, 210, 49);"/></g></g><g id="shape-6cb57905-4896-11ed-b107-8bd004d4c01f"><g id="fills-6cb57905-4896-11ed-b107-8bd004d4c01f"><path rx="0" ry="0" d="M942.16,270L995.79,275.67L998.79,331.41Z" style="fill: rgb(253, 210, 49);"/></g></g><g id="shape-6cb57906-4896-11ed-b107-8bd004d4c01f"><g id="fills-6cb57906-4896-11ed-b107-8bd004d4c01f"><path rx="0" ry="0" d="M1037.33,331.41L995.81,275.67L998.81,331.41Z" style="fill: rgb(253, 173, 0);"/></g></g><g id="shape-6cb57907-4896-11ed-b107-8bd004d4c01f"><g id="fills-6cb57907-4896-11ed-b107-8bd004d4c01f"><path rx="0" ry="0" d="M847,331.41L888.52,275.67L885.52,331.41Z" style="fill: rgb(253, 173, 0);"/></g></g><g id="shape-6cb57908-4896-11ed-b107-8bd004d4c01f"><g id="fills-6cb57908-4896-11ed-b107-8bd004d4c01f"><path rx="0" ry="0" d="M942.16,270L885.54,331.41L998.77,331.41Z" style="fill: rgb(254, 238, 183);"/></g></g></g></g></g></svg>